ISO-10303-21;
HEADER;
/* Generated by software containing ST-Developer
 * from STEP Tools, Inc. (www.steptools.com) 
 */

FILE_DESCRIPTION(
/* description */ (''),
/* implementation_level */ '2;1');

FILE_NAME(
/* name */ 'AprilTag 1.step',
/* time_stamp */ '2026-09-17T17:51:38-04:00',
/* author */ (''),
/* organization */ (''),
/* preprocessor_version */ 'ST-DEVELOPER v20.2',
/* originating_system */ 'Autodesk Translation Framework v15.15.0.0',
/* authorisation */ '');

FILE_SCHEMA (('AUTOMOTIVE_DESIGN { 1 0 10303 214 3 1 1 }'));
ENDSEC;

DATA;
#10=MECHANICAL_DESIGN_GEOMETRIC_PRESENTATION_REPRESENTATION('',(#31,#32,
#33,#34,#35,#36,#37,#38,#39,#40,#41,#42,#43,#44,#45,#46,#47),#2051);
#11=SHAPE_REPRESENTATION_RELATIONSHIP('SRR','None',#2058,#12);
#12=ADVANCED_BREP_SHAPE_REPRESENTATION('',(#48),#2050);
#13=OPEN_SHELL('',(#1254));
#14=OPEN_SHELL('',(#1255));
#15=OPEN_SHELL('',(#1256));
#16=OPEN_SHELL('',(#1257));
#17=OPEN_SHELL('',(#1258));
#18=OPEN_SHELL('',(#1259));
#19=OPEN_SHELL('',(#1260));
#20=OPEN_SHELL('',(#1261));
#21=OPEN_SHELL('',(#1262));
#22=SHELL_BASED_SURFACE_MODEL('Body2',(#13));
#23=SHELL_BASED_SURFACE_MODEL('Body3',(#14));
#24=SHELL_BASED_SURFACE_MODEL('Body4',(#15));
#25=SHELL_BASED_SURFACE_MODEL('Body5',(#16));
#26=SHELL_BASED_SURFACE_MODEL('Body6',(#17));
#27=SHELL_BASED_SURFACE_MODEL('Body7',(#18));
#28=SHELL_BASED_SURFACE_MODEL('Body8',(#19));
#29=SHELL_BASED_SURFACE_MODEL('Body9',(#20));
#30=SHELL_BASED_SURFACE_MODEL('Body10',(#21));
#31=STYLED_ITEM('',(#2068),#48);
#32=STYLED_ITEM('',(#2069),#1254);
#33=STYLED_ITEM('',(#2067),#22);
#34=STYLED_ITEM('',(#2069),#1255);
#35=STYLED_ITEM('',(#2067),#23);
#36=STYLED_ITEM('',(#2070),#1256);
#37=STYLED_ITEM('',(#2067),#24);
#38=STYLED_ITEM('',(#2070),#1257);
#39=STYLED_ITEM('',(#2067),#25);
#40=STYLED_ITEM('',(#2070),#1258);
#41=STYLED_ITEM('',(#2067),#26);
#42=STYLED_ITEM('',(#2070),#27);
#43=STYLED_ITEM('',(#2070),#1260);
#44=STYLED_ITEM('',(#2067),#28);
#45=STYLED_ITEM('',(#2070),#29);
#46=STYLED_ITEM('',(#2070),#1262);
#47=STYLED_ITEM('',(#2067),#30);
#48=MANIFOLD_SOLID_BREP('Body1',#1263);
#49=CYLINDRICAL_SURFACE('',#1298,2.);
#50=CYLINDRICAL_SURFACE('',#1301,0.499999999999999);
#51=CYLINDRICAL_SURFACE('',#1304,2.);
#52=CYLINDRICAL_SURFACE('',#1307,2.);
#53=CYLINDRICAL_SURFACE('',#1310,0.499999999999999);
#54=CYLINDRICAL_SURFACE('',#1313,2.);
#55=CYLINDRICAL_SURFACE('',#1316,2.);
#56=CYLINDRICAL_SURFACE('',#1319,0.499999999999999);
#57=CYLINDRICAL_SURFACE('',#1322,2.);
#58=CYLINDRICAL_SURFACE('',#1325,2.);
#59=CYLINDRICAL_SURFACE('',#1328,0.500000000000001);
#60=CYLINDRICAL_SURFACE('',#1331,2.);
#61=FACE_BOUND('',#112,.T.);
#62=FACE_BOUND('',#113,.T.);
#63=FACE_BOUND('',#120,.T.);
#64=FACE_BOUND('',#122,.T.);
#65=FACE_BOUND('',#152,.T.);
#66=FACE_BOUND('',#156,.T.);
#67=FACE_OUTER_BOUND('',#111,.T.);
#68=FACE_OUTER_BOUND('',#114,.T.);
#69=FACE_OUTER_BOUND('',#115,.T.);
#70=FACE_OUTER_BOUND('',#116,.T.);
#71=FACE_OUTER_BOUND('',#117,.T.);
#72=FACE_OUTER_BOUND('',#118,.T.);
#73=FACE_OUTER_BOUND('',#119,.T.);
#74=FACE_OUTER_BOUND('',#121,.T.);
#75=FACE_OUTER_BOUND('',#123,.T.);
#76=FACE_OUTER_BOUND('',#124,.T.);
#77=FACE_OUTER_BOUND('',#125,.T.);
#78=FACE_OUTER_BOUND('',#126,.T.);
#79=FACE_OUTER_BOUND('',#127,.T.);
#80=FACE_OUTER_BOUND('',#128,.T.);
#81=FACE_OUTER_BOUND('',#129,.T.);
#82=FACE_OUTER_BOUND('',#130,.T.);
#83=FACE_OUTER_BOUND('',#131,.T.);
#84=FACE_OUTER_BOUND('',#132,.T.);
#85=FACE_OUTER_BOUND('',#133,.T.);
#86=FACE_OUTER_BOUND('',#134,.T.);
#87=FACE_OUTER_BOUND('',#135,.T.);
#88=FACE_OUTER_BOUND('',#136,.T.);
#89=FACE_OUTER_BOUND('',#137,.T.);
#90=FACE_OUTER_BOUND('',#138,.T.);
#91=FACE_OUTER_BOUND('',#139,.T.);
#92=FACE_OUTER_BOUND('',#140,.T.);
#93=FACE_OUTER_BOUND('',#141,.T.);
#94=FACE_OUTER_BOUND('',#142,.T.);
#95=FACE_OUTER_BOUND('',#143,.T.);
#96=FACE_OUTER_BOUND('',#144,.T.);
#97=FACE_OUTER_BOUND('',#145,.T.);
#98=FACE_OUTER_BOUND('',#146,.T.);
#99=FACE_OUTER_BOUND('',#147,.T.);
#100=FACE_OUTER_BOUND('',#148,.T.);
#101=FACE_OUTER_BOUND('',#149,.T.);
#102=FACE_OUTER_BOUND('',#150,.T.);
#103=FACE_OUTER_BOUND('',#151,.T.);
#104=FACE_OUTER_BOUND('',#153,.T.);
#105=FACE_OUTER_BOUND('',#154,.T.);
#106=FACE_OUTER_BOUND('',#155,.T.);
#107=FACE_OUTER_BOUND('',#157,.T.);
#108=FACE_OUTER_BOUND('',#158,.T.);
#109=FACE_OUTER_BOUND('',#159,.T.);
#110=FACE_OUTER_BOUND('',#160,.T.);
#111=EDGE_LOOP('',(#872,#873,#874,#875,#876,#877,#878,#879,#880,#881,#882,
#883,#884,#885,#886,#887,#888,#889,#890,#891,#892,#893,#894,#895));
#112=EDGE_LOOP('',(#896,#897,#898,#899,#900,#901,#902,#903,#904,#905,#906,
#907,#908,#909,#910,#911,#912,#913,#914,#915,#916,#917,#918,#919,#920));
#113=EDGE_LOOP('',(#921,#922,#923,#924,#925,#926,#927));
#114=EDGE_LOOP('',(#928,#929,#930,#931));
#115=EDGE_LOOP('',(#932,#933,#934,#935));
#116=EDGE_LOOP('',(#936,#937,#938,#939));
#117=EDGE_LOOP('',(#940,#941,#942,#943));
#118=EDGE_LOOP('',(#944,#945,#946,#947));
#119=EDGE_LOOP('',(#948,#949,#950,#951));
#120=EDGE_LOOP('',(#952,#953,#954,#955,#956,#957));
#121=EDGE_LOOP('',(#958,#959,#960,#961,#962,#963,#964,#965,#966,#967,#968,
#969,#970,#971,#972,#973,#974,#975,#976,#977,#978,#979,#980,#981,#982));
#122=EDGE_LOOP('',(#983,#984,#985,#986));
#123=EDGE_LOOP('',(#987,#988,#989,#990,#991,#992,#993));
#124=EDGE_LOOP('',(#994,#995,#996,#997));
#125=EDGE_LOOP('',(#998,#999,#1000,#1001));
#126=EDGE_LOOP('',(#1002,#1003,#1004,#1005));
#127=EDGE_LOOP('',(#1006,#1007,#1008,#1009));
#128=EDGE_LOOP('',(#1010,#1011,#1012,#1013));
#129=EDGE_LOOP('',(#1014,#1015,#1016,#1017));
#130=EDGE_LOOP('',(#1018,#1019,#1020,#1021));
#131=EDGE_LOOP('',(#1022,#1023,#1024,#1025));
#132=EDGE_LOOP('',(#1026,#1027,#1028,#1029));
#133=EDGE_LOOP('',(#1030,#1031,#1032,#1033));
#134=EDGE_LOOP('',(#1034,#1035,#1036,#1037));
#135=EDGE_LOOP('',(#1038,#1039,#1040,#1041));
#136=EDGE_LOOP('',(#1042,#1043,#1044,#1045));
#137=EDGE_LOOP('',(#1046,#1047,#1048,#1049));
#138=EDGE_LOOP('',(#1050,#1051,#1052,#1053));
#139=EDGE_LOOP('',(#1054,#1055,#1056,#1057));
#140=EDGE_LOOP('',(#1058,#1059,#1060,#1061));
#141=EDGE_LOOP('',(#1062,#1063,#1064,#1065));
#142=EDGE_LOOP('',(#1066,#1067,#1068,#1069));
#143=EDGE_LOOP('',(#1070,#1071,#1072,#1073));
#144=EDGE_LOOP('',(#1074,#1075,#1076,#1077));
#145=EDGE_LOOP('',(#1078,#1079,#1080,#1081));
#146=EDGE_LOOP('',(#1082,#1083,#1084,#1085));
#147=EDGE_LOOP('',(#1086,#1087,#1088,#1089));
#148=EDGE_LOOP('',(#1090,#1091,#1092,#1093,#1094,#1095));
#149=EDGE_LOOP('',(#1096,#1097,#1098,#1099,#1100,#1101,#1102,#1103,#1104,
#1105,#1106,#1107,#1108,#1109,#1110,#1111,#1112,#1113,#1114,#1115,#1116,
#1117,#1118,#1119));
#150=EDGE_LOOP('',(#1120,#1121,#1122,#1123,#1124,#1125));
#151=EDGE_LOOP('',(#1126,#1127,#1128,#1129,#1130,#1131,#1132,#1133,#1134,
#1135,#1136,#1137,#1138,#1139,#1140,#1141,#1142,#1143,#1144,#1145));
#152=EDGE_LOOP('',(#1146,#1147,#1148,#1149));
#153=EDGE_LOOP('',(#1150,#1151,#1152,#1153));
#154=EDGE_LOOP('',(#1154,#1155,#1156,#1157));
#155=EDGE_LOOP('',(#1158,#1159,#1160,#1161));
#156=EDGE_LOOP('',(#1162,#1163,#1164,#1165,#1166,#1167));
#157=EDGE_LOOP('',(#1168,#1169,#1170,#1171));
#158=EDGE_LOOP('',(#1172,#1173,#1174,#1175));
#159=EDGE_LOOP('',(#1176,#1177,#1178,#1179,#1180,#1181,#1182));
#160=EDGE_LOOP('',(#1183,#1184,#1185,#1186));
#161=LINE('',#1656,#328);
#162=LINE('',#1660,#329);
#163=LINE('',#1664,#330);
#164=LINE('',#1668,#331);
#165=LINE('',#1672,#332);
#166=LINE('',#1676,#333);
#167=LINE('',#1680,#334);
#168=LINE('',#1684,#335);
#169=LINE('',#1688,#336);
#170=LINE('',#1692,#337);
#171=LINE('',#1696,#338);
#172=LINE('',#1699,#339);
#173=LINE('',#1702,#340);
#174=LINE('',#1704,#341);
#175=LINE('',#1706,#342);
#176=LINE('',#1708,#343);
#177=LINE('',#1710,#344);
#178=LINE('',#1712,#345);
#179=LINE('',#1714,#346);
#180=LINE('',#1716,#347);
#181=LINE('',#1718,#348);
#182=LINE('',#1720,#349);
#183=LINE('',#1722,#350);
#184=LINE('',#1724,#351);
#185=LINE('',#1726,#352);
#186=LINE('',#1728,#353);
#187=LINE('',#1730,#354);
#188=LINE('',#1732,#355);
#189=LINE('',#1734,#356);
#190=LINE('',#1736,#357);
#191=LINE('',#1738,#358);
#192=LINE('',#1740,#359);
#193=LINE('',#1742,#360);
#194=LINE('',#1744,#361);
#195=LINE('',#1746,#362);
#196=LINE('',#1748,#363);
#197=LINE('',#1749,#364);
#198=LINE('',#1752,#365);
#199=LINE('',#1754,#366);
#200=LINE('',#1756,#367);
#201=LINE('',#1758,#368);
#202=LINE('',#1760,#369);
#203=LINE('',#1762,#370);
#204=LINE('',#1763,#371);
#205=LINE('',#1766,#372);
#206=LINE('',#1767,#373);
#207=LINE('',#1770,#374);
#208=LINE('',#1771,#375);
#209=LINE('',#1774,#376);
#210=LINE('',#1775,#377);
#211=LINE('',#1778,#378);
#212=LINE('',#1779,#379);
#213=LINE('',#1782,#380);
#214=LINE('',#1783,#381);
#215=LINE('',#1787,#382);
#216=LINE('',#1789,#383);
#217=LINE('',#1791,#384);
#218=LINE('',#1792,#385);
#219=LINE('',#1795,#386);
#220=LINE('',#1797,#387);
#221=LINE('',#1799,#388);
#222=LINE('',#1801,#389);
#223=LINE('',#1803,#390);
#224=LINE('',#1804,#391);
#225=LINE('',#1811,#392);
#226=LINE('',#1812,#393);
#227=LINE('',#1815,#394);
#228=LINE('',#1816,#395);
#229=LINE('',#1820,#396);
#230=LINE('',#1823,#397);
#231=LINE('',#1824,#398);
#232=LINE('',#1828,#399);
#233=LINE('',#1831,#400);
#234=LINE('',#1832,#401);
#235=LINE('',#1836,#402);
#236=LINE('',#1839,#403);
#237=LINE('',#1840,#404);
#238=LINE('',#1844,#405);
#239=LINE('',#1847,#406);
#240=LINE('',#1848,#407);
#241=LINE('',#1852,#408);
#242=LINE('',#1855,#409);
#243=LINE('',#1856,#410);
#244=LINE('',#1860,#411);
#245=LINE('',#1863,#412);
#246=LINE('',#1864,#413);
#247=LINE('',#1868,#414);
#248=LINE('',#1871,#415);
#249=LINE('',#1872,#416);
#250=LINE('',#1876,#417);
#251=LINE('',#1879,#418);
#252=LINE('',#1880,#419);
#253=LINE('',#1884,#420);
#254=LINE('',#1887,#421);
#255=LINE('',#1888,#422);
#256=LINE('',#1892,#423);
#257=LINE('',#1895,#424);
#258=LINE('',#1896,#425);
#259=LINE('',#1900,#426);
#260=LINE('',#1902,#427);
#261=LINE('',#1908,#428);
#262=LINE('',#1910,#429);
#263=LINE('',#1912,#430);
#264=LINE('',#1914,#431);
#265=LINE('',#1916,#432);
#266=LINE('',#1917,#433);
#267=LINE('',#1921,#434);
#268=LINE('',#1923,#435);
#269=LINE('',#1925,#436);
#270=LINE('',#1927,#437);
#271=LINE('',#1929,#438);
#272=LINE('',#1931,#439);
#273=LINE('',#1933,#440);
#274=LINE('',#1935,#441);
#275=LINE('',#1937,#442);
#276=LINE('',#1939,#443);
#277=LINE('',#1941,#444);
#278=LINE('',#1943,#445);
#279=LINE('',#1945,#446);
#280=LINE('',#1947,#447);
#281=LINE('',#1949,#448);
#282=LINE('',#1951,#449);
#283=LINE('',#1953,#450);
#284=LINE('',#1955,#451);
#285=LINE('',#1957,#452);
#286=LINE('',#1958,#453);
#287=LINE('',#1961,#454);
#288=LINE('',#1963,#455);
#289=LINE('',#1965,#456);
#290=LINE('',#1966,#457);
#291=LINE('',#1970,#458);
#292=LINE('',#1972,#459);
#293=LINE('',#1974,#460);
#294=LINE('',#1975,#461);
#295=LINE('',#1979,#462);
#296=LINE('',#1981,#463);
#297=LINE('',#1983,#464);
#298=LINE('',#1984,#465);
#299=LINE('',#1988,#466);
#300=LINE('',#1990,#467);
#301=LINE('',#1992,#468);
#302=LINE('',#1993,#469);
#303=LINE('',#1996,#470);
#304=LINE('',#1998,#471);
#305=LINE('',#2000,#472);
#306=LINE('',#2002,#473);
#307=LINE('',#2004,#474);
#308=LINE('',#2005,#475);
#309=LINE('',#2009,#476);
#310=LINE('',#2011,#477);
#311=LINE('',#2013,#478);
#312=LINE('',#2014,#479);
#313=LINE('',#2018,#480);
#314=LINE('',#2020,#481);
#315=LINE('',#2022,#482);
#316=LINE('',#2023,#483);
#317=LINE('',#2027,#484);
#318=LINE('',#2029,#485);
#319=LINE('',#2031,#486);
#320=LINE('',#2033,#487);
#321=LINE('',#2035,#488);
#322=LINE('',#2037,#489);
#323=LINE('',#2038,#490);
#324=LINE('',#2042,#491);
#325=LINE('',#2044,#492);
#326=LINE('',#2046,#493);
#327=LINE('',#2047,#494);
#328=VECTOR('',#1351,1000.);
#329=VECTOR('',#1354,1000.);
#330=VECTOR('',#1357,1000.);
#331=VECTOR('',#1360,1000.);
#332=VECTOR('',#1363,1000.);
#333=VECTOR('',#1366,1000.);
#334=VECTOR('',#1369,1000.);
#335=VECTOR('',#1372,1000.);
#336=VECTOR('',#1375,1000.);
#337=VECTOR('',#1378,1000.);
#338=VECTOR('',#1381,1000.);
#339=VECTOR('',#1384,1000.);
#340=VECTOR('',#1385,1000.);
#341=VECTOR('',#1386,1000.);
#342=VECTOR('',#1387,1000.);
#343=VECTOR('',#1388,1000.);
#344=VECTOR('',#1389,1000.);
#345=VECTOR('',#1390,1000.);
#346=VECTOR('',#1391,1000.);
#347=VECTOR('',#1392,1000.);
#348=VECTOR('',#1393,1000.);
#349=VECTOR('',#1394,1000.);
#350=VECTOR('',#1395,1000.);
#351=VECTOR('',#1396,1000.);
#352=VECTOR('',#1397,1000.);
#353=VECTOR('',#1398,1000.);
#354=VECTOR('',#1399,1000.);
#355=VECTOR('',#1400,1000.);
#356=VECTOR('',#1401,1000.);
#357=VECTOR('',#1402,1000.);
#358=VECTOR('',#1403,1000.);
#359=VECTOR('',#1404,1000.);
#360=VECTOR('',#1405,1000.);
#361=VECTOR('',#1406,1000.);
#362=VECTOR('',#1407,1000.);
#363=VECTOR('',#1408,1000.);
#364=VECTOR('',#1409,1000.);
#365=VECTOR('',#1410,1000.);
#366=VECTOR('',#1411,1000.);
#367=VECTOR('',#1412,1000.);
#368=VECTOR('',#1413,1000.);
#369=VECTOR('',#1414,1000.);
#370=VECTOR('',#1415,1000.);
#371=VECTOR('',#1416,1000.);
#372=VECTOR('',#1419,1000.);
#373=VECTOR('',#1420,1000.);
#374=VECTOR('',#1423,1000.);
#375=VECTOR('',#1424,1000.);
#376=VECTOR('',#1427,1000.);
#377=VECTOR('',#1428,1000.);
#378=VECTOR('',#1431,1000.);
#379=VECTOR('',#1432,1000.);
#380=VECTOR('',#1435,1000.);
#381=VECTOR('',#1436,1000.);
#382=VECTOR('',#1439,1000.);
#383=VECTOR('',#1440,1000.);
#384=VECTOR('',#1441,1000.);
#385=VECTOR('',#1442,1000.);
#386=VECTOR('',#1443,1000.);
#387=VECTOR('',#1444,1000.);
#388=VECTOR('',#1445,1000.);
#389=VECTOR('',#1446,1000.);
#390=VECTOR('',#1447,1000.);
#391=VECTOR('',#1448,1000.);
#392=VECTOR('',#1457,1000.);
#393=VECTOR('',#1458,1000.);
#394=VECTOR('',#1461,1000.);
#395=VECTOR('',#1462,1000.);
#396=VECTOR('',#1467,1000.);
#397=VECTOR('',#1470,1000.);
#398=VECTOR('',#1471,1000.);
#399=VECTOR('',#1476,1000.);
#400=VECTOR('',#1479,1000.);
#401=VECTOR('',#1480,1000.);
#402=VECTOR('',#1485,1000.);
#403=VECTOR('',#1488,1000.);
#404=VECTOR('',#1489,1000.);
#405=VECTOR('',#1494,1000.);
#406=VECTOR('',#1497,1000.);
#407=VECTOR('',#1498,1000.);
#408=VECTOR('',#1503,1000.);
#409=VECTOR('',#1506,1000.);
#410=VECTOR('',#1507,1000.);
#411=VECTOR('',#1512,1000.);
#412=VECTOR('',#1515,1000.);
#413=VECTOR('',#1516,1000.);
#414=VECTOR('',#1521,1000.);
#415=VECTOR('',#1524,1000.);
#416=VECTOR('',#1525,1000.);
#417=VECTOR('',#1530,1000.);
#418=VECTOR('',#1533,1000.);
#419=VECTOR('',#1534,1000.);
#420=VECTOR('',#1539,1000.);
#421=VECTOR('',#1542,1000.);
#422=VECTOR('',#1543,1000.);
#423=VECTOR('',#1548,1000.);
#424=VECTOR('',#1551,1000.);
#425=VECTOR('',#1552,1000.);
#426=VECTOR('',#1557,1000.);
#427=VECTOR('',#1560,1000.);
#428=VECTOR('',#1567,1000.);
#429=VECTOR('',#1568,1000.);
#430=VECTOR('',#1569,1000.);
#431=VECTOR('',#1570,1000.);
#432=VECTOR('',#1571,1000.);
#433=VECTOR('',#1572,1000.);
#434=VECTOR('',#1575,1000.);
#435=VECTOR('',#1576,1000.);
#436=VECTOR('',#1577,1000.);
#437=VECTOR('',#1578,1000.);
#438=VECTOR('',#1579,1000.);
#439=VECTOR('',#1580,1000.);
#440=VECTOR('',#1581,1000.);
#441=VECTOR('',#1582,1000.);
#442=VECTOR('',#1583,1000.);
#443=VECTOR('',#1584,1000.);
#444=VECTOR('',#1585,1000.);
#445=VECTOR('',#1586,1000.);
#446=VECTOR('',#1587,1000.);
#447=VECTOR('',#1588,1000.);
#448=VECTOR('',#1589,1000.);
#449=VECTOR('',#1590,1000.);
#450=VECTOR('',#1591,1000.);
#451=VECTOR('',#1592,1000.);
#452=VECTOR('',#1593,1000.);
#453=VECTOR('',#1594,1000.);
#454=VECTOR('',#1595,1000.);
#455=VECTOR('',#1596,1000.);
#456=VECTOR('',#1597,1000.);
#457=VECTOR('',#1598,1000.);
#458=VECTOR('',#1601,1000.);
#459=VECTOR('',#1602,1000.);
#460=VECTOR('',#1603,1000.);
#461=VECTOR('',#1604,1000.);
#462=VECTOR('',#1607,1000.);
#463=VECTOR('',#1608,1000.);
#464=VECTOR('',#1609,1000.);
#465=VECTOR('',#1610,1000.);
#466=VECTOR('',#1613,1000.);
#467=VECTOR('',#1614,1000.);
#468=VECTOR('',#1615,1000.);
#469=VECTOR('',#1616,1000.);
#470=VECTOR('',#1617,1000.);
#471=VECTOR('',#1618,1000.);
#472=VECTOR('',#1619,1000.);
#473=VECTOR('',#1620,1000.);
#474=VECTOR('',#1621,1000.);
#475=VECTOR('',#1622,1000.);
#476=VECTOR('',#1625,1000.);
#477=VECTOR('',#1626,1000.);
#478=VECTOR('',#1627,1000.);
#479=VECTOR('',#1628,1000.);
#480=VECTOR('',#1631,1000.);
#481=VECTOR('',#1632,1000.);
#482=VECTOR('',#1633,1000.);
#483=VECTOR('',#1634,1000.);
#484=VECTOR('',#1637,1000.);
#485=VECTOR('',#1638,1000.);
#486=VECTOR('',#1639,1000.);
#487=VECTOR('',#1640,1000.);
#488=VECTOR('',#1641,1000.);
#489=VECTOR('',#1642,1000.);
#490=VECTOR('',#1643,1000.);
#491=VECTOR('',#1646,1000.);
#492=VECTOR('',#1647,1000.);
#493=VECTOR('',#1648,1000.);
#494=VECTOR('',#1649,1000.);
#495=CIRCLE('',#1278,2.);
#496=CIRCLE('',#1279,0.499999999999999);
#497=CIRCLE('',#1280,2.);
#498=CIRCLE('',#1281,2.);
#499=CIRCLE('',#1282,0.499999999999999);
#500=CIRCLE('',#1283,2.);
#501=CIRCLE('',#1284,2.);
#502=CIRCLE('',#1285,0.499999999999999);
#503=CIRCLE('',#1286,2.);
#504=CIRCLE('',#1287,2.);
#505=CIRCLE('',#1288,0.500000000000001);
#506=CIRCLE('',#1289,2.);
#507=CIRCLE('',#1299,2.);
#508=CIRCLE('',#1302,0.499999999999999);
#509=CIRCLE('',#1305,2.);
#510=CIRCLE('',#1308,2.);
#511=CIRCLE('',#1311,0.499999999999999);
#512=CIRCLE('',#1314,2.);
#513=CIRCLE('',#1317,2.);
#514=CIRCLE('',#1320,0.499999999999999);
#515=CIRCLE('',#1323,2.);
#516=CIRCLE('',#1326,2.);
#517=CIRCLE('',#1329,0.500000000000001);
#518=CIRCLE('',#1332,2.);
#519=VERTEX_POINT('',#1652);
#520=VERTEX_POINT('',#1653);
#521=VERTEX_POINT('',#1655);
#522=VERTEX_POINT('',#1657);
#523=VERTEX_POINT('',#1659);
#524=VERTEX_POINT('',#1661);
#525=VERTEX_POINT('',#1663);
#526=VERTEX_POINT('',#1665);
#527=VERTEX_POINT('',#1667);
#528=VERTEX_POINT('',#1669);
#529=VERTEX_POINT('',#1671);
#530=VERTEX_POINT('',#1673);
#531=VERTEX_POINT('',#1675);
#532=VERTEX_POINT('',#1677);
#533=VERTEX_POINT('',#1679);
#534=VERTEX_POINT('',#1681);
#535=VERTEX_POINT('',#1683);
#536=VERTEX_POINT('',#1685);
#537=VERTEX_POINT('',#1687);
#538=VERTEX_POINT('',#1689);
#539=VERTEX_POINT('',#1691);
#540=VERTEX_POINT('',#1693);
#541=VERTEX_POINT('',#1695);
#542=VERTEX_POINT('',#1697);
#543=VERTEX_POINT('',#1700);
#544=VERTEX_POINT('',#1701);
#545=VERTEX_POINT('',#1703);
#546=VERTEX_POINT('',#1705);
#547=VERTEX_POINT('',#1707);
#548=VERTEX_POINT('',#1709);
#549=VERTEX_POINT('',#1711);
#550=VERTEX_POINT('',#1713);
#551=VERTEX_POINT('',#1715);
#552=VERTEX_POINT('',#1717);
#553=VERTEX_POINT('',#1719);
#554=VERTEX_POINT('',#1721);
#555=VERTEX_POINT('',#1723);
#556=VERTEX_POINT('',#1725);
#557=VERTEX_POINT('',#1727);
#558=VERTEX_POINT('',#1729);
#559=VERTEX_POINT('',#1731);
#560=VERTEX_POINT('',#1733);
#561=VERTEX_POINT('',#1735);
#562=VERTEX_POINT('',#1737);
#563=VERTEX_POINT('',#1739);
#564=VERTEX_POINT('',#1741);
#565=VERTEX_POINT('',#1743);
#566=VERTEX_POINT('',#1745);
#567=VERTEX_POINT('',#1747);
#568=VERTEX_POINT('',#1750);
#569=VERTEX_POINT('',#1751);
#570=VERTEX_POINT('',#1753);
#571=VERTEX_POINT('',#1755);
#572=VERTEX_POINT('',#1757);
#573=VERTEX_POINT('',#1759);
#574=VERTEX_POINT('',#1761);
#575=VERTEX_POINT('',#1765);
#576=VERTEX_POINT('',#1769);
#577=VERTEX_POINT('',#1773);
#578=VERTEX_POINT('',#1777);
#579=VERTEX_POINT('',#1781);
#580=VERTEX_POINT('',#1785);
#581=VERTEX_POINT('',#1786);
#582=VERTEX_POINT('',#1788);
#583=VERTEX_POINT('',#1790);
#584=VERTEX_POINT('',#1793);
#585=VERTEX_POINT('',#1794);
#586=VERTEX_POINT('',#1796);
#587=VERTEX_POINT('',#1798);
#588=VERTEX_POINT('',#1800);
#589=VERTEX_POINT('',#1802);
#590=VERTEX_POINT('',#1808);
#591=VERTEX_POINT('',#1809);
#592=VERTEX_POINT('',#1814);
#593=VERTEX_POINT('',#1818);
#594=VERTEX_POINT('',#1822);
#595=VERTEX_POINT('',#1826);
#596=VERTEX_POINT('',#1830);
#597=VERTEX_POINT('',#1834);
#598=VERTEX_POINT('',#1838);
#599=VERTEX_POINT('',#1842);
#600=VERTEX_POINT('',#1846);
#601=VERTEX_POINT('',#1850);
#602=VERTEX_POINT('',#1854);
#603=VERTEX_POINT('',#1858);
#604=VERTEX_POINT('',#1862);
#605=VERTEX_POINT('',#1866);
#606=VERTEX_POINT('',#1870);
#607=VERTEX_POINT('',#1874);
#608=VERTEX_POINT('',#1878);
#609=VERTEX_POINT('',#1882);
#610=VERTEX_POINT('',#1886);
#611=VERTEX_POINT('',#1890);
#612=VERTEX_POINT('',#1894);
#613=VERTEX_POINT('',#1898);
#614=VERTEX_POINT('',#1906);
#615=VERTEX_POINT('',#1907);
#616=VERTEX_POINT('',#1909);
#617=VERTEX_POINT('',#1911);
#618=VERTEX_POINT('',#1913);
#619=VERTEX_POINT('',#1915);
#620=VERTEX_POINT('',#1919);
#621=VERTEX_POINT('',#1920);
#622=VERTEX_POINT('',#1922);
#623=VERTEX_POINT('',#1924);
#624=VERTEX_POINT('',#1926);
#625=VERTEX_POINT('',#1928);
#626=VERTEX_POINT('',#1930);
#627=VERTEX_POINT('',#1932);
#628=VERTEX_POINT('',#1934);
#629=VERTEX_POINT('',#1936);
#630=VERTEX_POINT('',#1938);
#631=VERTEX_POINT('',#1940);
#632=VERTEX_POINT('',#1942);
#633=VERTEX_POINT('',#1944);
#634=VERTEX_POINT('',#1946);
#635=VERTEX_POINT('',#1948);
#636=VERTEX_POINT('',#1950);
#637=VERTEX_POINT('',#1952);
#638=VERTEX_POINT('',#1954);
#639=VERTEX_POINT('',#1956);
#640=VERTEX_POINT('',#1959);
#641=VERTEX_POINT('',#1960);
#642=VERTEX_POINT('',#1962);
#643=VERTEX_POINT('',#1964);
#644=VERTEX_POINT('',#1968);
#645=VERTEX_POINT('',#1969);
#646=VERTEX_POINT('',#1971);
#647=VERTEX_POINT('',#1973);
#648=VERTEX_POINT('',#1977);
#649=VERTEX_POINT('',#1978);
#650=VERTEX_POINT('',#1980);
#651=VERTEX_POINT('',#1982);
#652=VERTEX_POINT('',#1986);
#653=VERTEX_POINT('',#1987);
#654=VERTEX_POINT('',#1989);
#655=VERTEX_POINT('',#1991);
#656=VERTEX_POINT('',#1994);
#657=VERTEX_POINT('',#1995);
#658=VERTEX_POINT('',#1997);
#659=VERTEX_POINT('',#1999);
#660=VERTEX_POINT('',#2001);
#661=VERTEX_POINT('',#2003);
#662=VERTEX_POINT('',#2007);
#663=VERTEX_POINT('',#2008);
#664=VERTEX_POINT('',#2010);
#665=VERTEX_POINT('',#2012);
#666=VERTEX_POINT('',#2016);
#667=VERTEX_POINT('',#2017);
#668=VERTEX_POINT('',#2019);
#669=VERTEX_POINT('',#2021);
#670=VERTEX_POINT('',#2025);
#671=VERTEX_POINT('',#2026);
#672=VERTEX_POINT('',#2028);
#673=VERTEX_POINT('',#2030);
#674=VERTEX_POINT('',#2032);
#675=VERTEX_POINT('',#2034);
#676=VERTEX_POINT('',#2036);
#677=VERTEX_POINT('',#2040);
#678=VERTEX_POINT('',#2041);
#679=VERTEX_POINT('',#2043);
#680=VERTEX_POINT('',#2045);
#681=EDGE_CURVE('',#519,#520,#495,.T.);
#682=EDGE_CURVE('',#520,#521,#161,.T.);
#683=EDGE_CURVE('',#521,#522,#496,.T.);
#684=EDGE_CURVE('',#522,#523,#162,.T.);
#685=EDGE_CURVE('',#523,#524,#497,.T.);
#686=EDGE_CURVE('',#524,#525,#163,.T.);
#687=EDGE_CURVE('',#525,#526,#498,.T.);
#688=EDGE_CURVE('',#526,#527,#164,.T.);
#689=EDGE_CURVE('',#527,#528,#499,.T.);
#690=EDGE_CURVE('',#528,#529,#165,.T.);
#691=EDGE_CURVE('',#529,#530,#500,.T.);
#692=EDGE_CURVE('',#530,#531,#166,.T.);
#693=EDGE_CURVE('',#531,#532,#501,.T.);
#694=EDGE_CURVE('',#532,#533,#167,.T.);
#695=EDGE_CURVE('',#533,#534,#502,.T.);
#696=EDGE_CURVE('',#534,#535,#168,.T.);
#697=EDGE_CURVE('',#535,#536,#503,.T.);
#698=EDGE_CURVE('',#536,#537,#169,.T.);
#699=EDGE_CURVE('',#537,#538,#504,.T.);
#700=EDGE_CURVE('',#538,#539,#170,.T.);
#701=EDGE_CURVE('',#539,#540,#505,.T.);
#702=EDGE_CURVE('',#540,#541,#171,.T.);
#703=EDGE_CURVE('',#541,#542,#506,.T.);
#704=EDGE_CURVE('',#542,#519,#172,.T.);
#705=EDGE_CURVE('',#543,#544,#173,.T.);
#706=EDGE_CURVE('',#545,#543,#174,.T.);
#707=EDGE_CURVE('',#546,#545,#175,.T.);
#708=EDGE_CURVE('',#547,#546,#176,.T.);
#709=EDGE_CURVE('',#548,#547,#177,.T.);
#710=EDGE_CURVE('',#549,#548,#178,.T.);
#711=EDGE_CURVE('',#550,#549,#179,.T.);
#712=EDGE_CURVE('',#551,#550,#180,.T.);
#713=EDGE_CURVE('',#552,#551,#181,.T.);
#714=EDGE_CURVE('',#553,#552,#182,.T.);
#715=EDGE_CURVE('',#554,#553,#183,.T.);
#716=EDGE_CURVE('',#555,#554,#184,.T.);
#717=EDGE_CURVE('',#556,#555,#185,.T.);
#718=EDGE_CURVE('',#557,#556,#186,.T.);
#719=EDGE_CURVE('',#558,#557,#187,.T.);
#720=EDGE_CURVE('',#559,#558,#188,.T.);
#721=EDGE_CURVE('',#560,#559,#189,.T.);
#722=EDGE_CURVE('',#561,#560,#190,.T.);
#723=EDGE_CURVE('',#562,#561,#191,.T.);
#724=EDGE_CURVE('',#563,#562,#192,.T.);
#725=EDGE_CURVE('',#564,#563,#193,.T.);
#726=EDGE_CURVE('',#565,#564,#194,.T.);
#727=EDGE_CURVE('',#566,#565,#195,.T.);
#728=EDGE_CURVE('',#567,#566,#196,.T.);
#729=EDGE_CURVE('',#544,#567,#197,.T.);
#730=EDGE_CURVE('',#568,#569,#198,.T.);
#731=EDGE_CURVE('',#570,#568,#199,.T.);
#732=EDGE_CURVE('',#571,#570,#200,.T.);
#733=EDGE_CURVE('',#572,#571,#201,.T.);
#734=EDGE_CURVE('',#573,#572,#202,.T.);
#735=EDGE_CURVE('',#574,#573,#203,.T.);
#736=EDGE_CURVE('',#569,#574,#204,.T.);
#737=EDGE_CURVE('',#543,#575,#205,.T.);
#738=EDGE_CURVE('',#575,#567,#206,.T.);
#739=EDGE_CURVE('',#550,#576,#207,.T.);
#740=EDGE_CURVE('',#576,#548,#208,.T.);
#741=EDGE_CURVE('',#553,#577,#209,.T.);
#742=EDGE_CURVE('',#577,#551,#210,.T.);
#743=EDGE_CURVE('',#565,#578,#211,.T.);
#744=EDGE_CURVE('',#578,#563,#212,.T.);
#745=EDGE_CURVE('',#559,#579,#213,.T.);
#746=EDGE_CURVE('',#579,#557,#214,.T.);
#747=EDGE_CURVE('',#580,#581,#215,.T.);
#748=EDGE_CURVE('',#581,#582,#216,.T.);
#749=EDGE_CURVE('',#582,#583,#217,.T.);
#750=EDGE_CURVE('',#583,#580,#218,.T.);
#751=EDGE_CURVE('',#584,#585,#219,.T.);
#752=EDGE_CURVE('',#586,#584,#220,.T.);
#753=EDGE_CURVE('',#587,#586,#221,.T.);
#754=EDGE_CURVE('',#588,#587,#222,.T.);
#755=EDGE_CURVE('',#589,#588,#223,.T.);
#756=EDGE_CURVE('',#585,#589,#224,.T.);
#757=EDGE_CURVE('',#590,#591,#507,.T.);
#758=EDGE_CURVE('',#520,#591,#225,.T.);
#759=EDGE_CURVE('',#519,#590,#226,.T.);
#760=EDGE_CURVE('',#591,#592,#227,.T.);
#761=EDGE_CURVE('',#521,#592,#228,.T.);
#762=EDGE_CURVE('',#592,#593,#508,.T.);
#763=EDGE_CURVE('',#522,#593,#229,.T.);
#764=EDGE_CURVE('',#593,#594,#230,.T.);
#765=EDGE_CURVE('',#523,#594,#231,.T.);
#766=EDGE_CURVE('',#594,#595,#509,.T.);
#767=EDGE_CURVE('',#524,#595,#232,.T.);
#768=EDGE_CURVE('',#595,#596,#233,.T.);
#769=EDGE_CURVE('',#525,#596,#234,.T.);
#770=EDGE_CURVE('',#596,#597,#510,.T.);
#771=EDGE_CURVE('',#526,#597,#235,.T.);
#772=EDGE_CURVE('',#597,#598,#236,.T.);
#773=EDGE_CURVE('',#527,#598,#237,.T.);
#774=EDGE_CURVE('',#598,#599,#511,.T.);
#775=EDGE_CURVE('',#528,#599,#238,.T.);
#776=EDGE_CURVE('',#599,#600,#239,.T.);
#777=EDGE_CURVE('',#529,#600,#240,.T.);
#778=EDGE_CURVE('',#600,#601,#512,.T.);
#779=EDGE_CURVE('',#530,#601,#241,.T.);
#780=EDGE_CURVE('',#601,#602,#242,.T.);
#781=EDGE_CURVE('',#531,#602,#243,.T.);
#782=EDGE_CURVE('',#602,#603,#513,.T.);
#783=EDGE_CURVE('',#532,#603,#244,.T.);
#784=EDGE_CURVE('',#603,#604,#245,.T.);
#785=EDGE_CURVE('',#533,#604,#246,.T.);
#786=EDGE_CURVE('',#604,#605,#514,.T.);
#787=EDGE_CURVE('',#534,#605,#247,.T.);
#788=EDGE_CURVE('',#605,#606,#248,.T.);
#789=EDGE_CURVE('',#535,#606,#249,.T.);
#790=EDGE_CURVE('',#606,#607,#515,.T.);
#791=EDGE_CURVE('',#536,#607,#250,.T.);
#792=EDGE_CURVE('',#607,#608,#251,.T.);
#793=EDGE_CURVE('',#537,#608,#252,.T.);
#794=EDGE_CURVE('',#608,#609,#516,.T.);
#795=EDGE_CURVE('',#538,#609,#253,.T.);
#796=EDGE_CURVE('',#609,#610,#254,.T.);
#797=EDGE_CURVE('',#539,#610,#255,.T.);
#798=EDGE_CURVE('',#610,#611,#517,.T.);
#799=EDGE_CURVE('',#540,#611,#256,.T.);
#800=EDGE_CURVE('',#611,#612,#257,.T.);
#801=EDGE_CURVE('',#541,#612,#258,.T.);
#802=EDGE_CURVE('',#612,#613,#518,.T.);
#803=EDGE_CURVE('',#542,#613,#259,.T.);
#804=EDGE_CURVE('',#613,#590,#260,.T.);
#805=EDGE_CURVE('',#614,#615,#261,.T.);
#806=EDGE_CURVE('',#615,#616,#262,.T.);
#807=EDGE_CURVE('',#616,#617,#263,.T.);
#808=EDGE_CURVE('',#617,#618,#264,.T.);
#809=EDGE_CURVE('',#618,#619,#265,.T.);
#810=EDGE_CURVE('',#619,#614,#266,.T.);
#811=EDGE_CURVE('',#620,#621,#267,.T.);
#812=EDGE_CURVE('',#621,#622,#268,.T.);
#813=EDGE_CURVE('',#622,#623,#269,.T.);
#814=EDGE_CURVE('',#623,#624,#270,.T.);
#815=EDGE_CURVE('',#624,#625,#271,.T.);
#816=EDGE_CURVE('',#625,#626,#272,.T.);
#817=EDGE_CURVE('',#626,#627,#273,.T.);
#818=EDGE_CURVE('',#627,#628,#274,.T.);
#819=EDGE_CURVE('',#628,#629,#275,.T.);
#820=EDGE_CURVE('',#629,#630,#276,.T.);
#821=EDGE_CURVE('',#630,#631,#277,.T.);
#822=EDGE_CURVE('',#631,#632,#278,.T.);
#823=EDGE_CURVE('',#632,#633,#279,.T.);
#824=EDGE_CURVE('',#633,#634,#280,.T.);
#825=EDGE_CURVE('',#634,#635,#281,.T.);
#826=EDGE_CURVE('',#635,#636,#282,.T.);
#827=EDGE_CURVE('',#636,#637,#283,.T.);
#828=EDGE_CURVE('',#637,#638,#284,.T.);
#829=EDGE_CURVE('',#638,#639,#285,.T.);
#830=EDGE_CURVE('',#639,#620,#286,.T.);
#831=EDGE_CURVE('',#640,#641,#287,.T.);
#832=EDGE_CURVE('',#642,#640,#288,.T.);
#833=EDGE_CURVE('',#643,#642,#289,.T.);
#834=EDGE_CURVE('',#641,#643,#290,.T.);
#835=EDGE_CURVE('',#644,#645,#291,.T.);
#836=EDGE_CURVE('',#644,#646,#292,.T.);
#837=EDGE_CURVE('',#646,#647,#293,.T.);
#838=EDGE_CURVE('',#645,#647,#294,.T.);
#839=EDGE_CURVE('',#648,#649,#295,.T.);
#840=EDGE_CURVE('',#648,#650,#296,.T.);
#841=EDGE_CURVE('',#650,#651,#297,.T.);
#842=EDGE_CURVE('',#649,#651,#298,.T.);
#843=EDGE_CURVE('',#652,#653,#299,.T.);
#844=EDGE_CURVE('',#653,#654,#300,.T.);
#845=EDGE_CURVE('',#654,#655,#301,.T.);
#846=EDGE_CURVE('',#655,#652,#302,.T.);
#847=EDGE_CURVE('',#656,#657,#303,.T.);
#848=EDGE_CURVE('',#658,#656,#304,.T.);
#849=EDGE_CURVE('',#659,#658,#305,.T.);
#850=EDGE_CURVE('',#660,#659,#306,.T.);
#851=EDGE_CURVE('',#661,#660,#307,.T.);
#852=EDGE_CURVE('',#657,#661,#308,.T.);
#853=EDGE_CURVE('',#662,#663,#309,.T.);
#854=EDGE_CURVE('',#662,#664,#310,.T.);
#855=EDGE_CURVE('',#664,#665,#311,.T.);
#856=EDGE_CURVE('',#663,#665,#312,.T.);
#857=EDGE_CURVE('',#666,#667,#313,.T.);
#858=EDGE_CURVE('',#666,#668,#314,.T.);
#859=EDGE_CURVE('',#668,#669,#315,.T.);
#860=EDGE_CURVE('',#667,#669,#316,.T.);
#861=EDGE_CURVE('',#670,#671,#317,.T.);
#862=EDGE_CURVE('',#671,#672,#318,.T.);
#863=EDGE_CURVE('',#672,#673,#319,.T.);
#864=EDGE_CURVE('',#673,#674,#320,.T.);
#865=EDGE_CURVE('',#674,#675,#321,.T.);
#866=EDGE_CURVE('',#675,#676,#322,.T.);
#867=EDGE_CURVE('',#676,#670,#323,.T.);
#868=EDGE_CURVE('',#677,#678,#324,.T.);
#869=EDGE_CURVE('',#677,#679,#325,.T.);
#870=EDGE_CURVE('',#679,#680,#326,.T.);
#871=EDGE_CURVE('',#678,#680,#327,.T.);
#872=ORIENTED_EDGE('',*,*,#681,.T.);
#873=ORIENTED_EDGE('',*,*,#682,.T.);
#874=ORIENTED_EDGE('',*,*,#683,.T.);
#875=ORIENTED_EDGE('',*,*,#684,.T.);
#876=ORIENTED_EDGE('',*,*,#685,.T.);
#877=ORIENTED_EDGE('',*,*,#686,.T.);
#878=ORIENTED_EDGE('',*,*,#687,.T.);
#879=ORIENTED_EDGE('',*,*,#688,.T.);
#880=ORIENTED_EDGE('',*,*,#689,.T.);
#881=ORIENTED_EDGE('',*,*,#690,.T.);
#882=ORIENTED_EDGE('',*,*,#691,.T.);
#883=ORIENTED_EDGE('',*,*,#692,.T.);
#884=ORIENTED_EDGE('',*,*,#693,.T.);
#885=ORIENTED_EDGE('',*,*,#694,.T.);
#886=ORIENTED_EDGE('',*,*,#695,.T.);
#887=ORIENTED_EDGE('',*,*,#696,.T.);
#888=ORIENTED_EDGE('',*,*,#697,.T.);
#889=ORIENTED_EDGE('',*,*,#698,.T.);
#890=ORIENTED_EDGE('',*,*,#699,.T.);
#891=ORIENTED_EDGE('',*,*,#700,.T.);
#892=ORIENTED_EDGE('',*,*,#701,.T.);
#893=ORIENTED_EDGE('',*,*,#702,.T.);
#894=ORIENTED_EDGE('',*,*,#703,.T.);
#895=ORIENTED_EDGE('',*,*,#704,.T.);
#896=ORIENTED_EDGE('',*,*,#705,.F.);
#897=ORIENTED_EDGE('',*,*,#706,.F.);
#898=ORIENTED_EDGE('',*,*,#707,.F.);
#899=ORIENTED_EDGE('',*,*,#708,.F.);
#900=ORIENTED_EDGE('',*,*,#709,.F.);
#901=ORIENTED_EDGE('',*,*,#710,.F.);
#902=ORIENTED_EDGE('',*,*,#711,.F.);
#903=ORIENTED_EDGE('',*,*,#712,.F.);
#904=ORIENTED_EDGE('',*,*,#713,.F.);
#905=ORIENTED_EDGE('',*,*,#714,.F.);
#906=ORIENTED_EDGE('',*,*,#715,.F.);
#907=ORIENTED_EDGE('',*,*,#716,.F.);
#908=ORIENTED_EDGE('',*,*,#717,.F.);
#909=ORIENTED_EDGE('',*,*,#718,.F.);
#910=ORIENTED_EDGE('',*,*,#719,.F.);
#911=ORIENTED_EDGE('',*,*,#720,.F.);
#912=ORIENTED_EDGE('',*,*,#721,.F.);
#913=ORIENTED_EDGE('',*,*,#722,.F.);
#914=ORIENTED_EDGE('',*,*,#723,.F.);
#915=ORIENTED_EDGE('',*,*,#724,.F.);
#916=ORIENTED_EDGE('',*,*,#725,.F.);
#917=ORIENTED_EDGE('',*,*,#726,.F.);
#918=ORIENTED_EDGE('',*,*,#727,.F.);
#919=ORIENTED_EDGE('',*,*,#728,.F.);
#920=ORIENTED_EDGE('',*,*,#729,.F.);
#921=ORIENTED_EDGE('',*,*,#730,.F.);
#922=ORIENTED_EDGE('',*,*,#731,.F.);
#923=ORIENTED_EDGE('',*,*,#732,.F.);
#924=ORIENTED_EDGE('',*,*,#733,.F.);
#925=ORIENTED_EDGE('',*,*,#734,.F.);
#926=ORIENTED_EDGE('',*,*,#735,.F.);
#927=ORIENTED_EDGE('',*,*,#736,.F.);
#928=ORIENTED_EDGE('',*,*,#737,.F.);
#929=ORIENTED_EDGE('',*,*,#705,.T.);
#930=ORIENTED_EDGE('',*,*,#729,.T.);
#931=ORIENTED_EDGE('',*,*,#738,.F.);
#932=ORIENTED_EDGE('',*,*,#739,.F.);
#933=ORIENTED_EDGE('',*,*,#711,.T.);
#934=ORIENTED_EDGE('',*,*,#710,.T.);
#935=ORIENTED_EDGE('',*,*,#740,.F.);
#936=ORIENTED_EDGE('',*,*,#741,.F.);
#937=ORIENTED_EDGE('',*,*,#714,.T.);
#938=ORIENTED_EDGE('',*,*,#713,.T.);
#939=ORIENTED_EDGE('',*,*,#742,.F.);
#940=ORIENTED_EDGE('',*,*,#743,.F.);
#941=ORIENTED_EDGE('',*,*,#726,.T.);
#942=ORIENTED_EDGE('',*,*,#725,.T.);
#943=ORIENTED_EDGE('',*,*,#744,.F.);
#944=ORIENTED_EDGE('',*,*,#745,.F.);
#945=ORIENTED_EDGE('',*,*,#720,.T.);
#946=ORIENTED_EDGE('',*,*,#719,.T.);
#947=ORIENTED_EDGE('',*,*,#746,.F.);
#948=ORIENTED_EDGE('',*,*,#747,.T.);
#949=ORIENTED_EDGE('',*,*,#748,.T.);
#950=ORIENTED_EDGE('',*,*,#749,.T.);
#951=ORIENTED_EDGE('',*,*,#750,.T.);
#952=ORIENTED_EDGE('',*,*,#751,.F.);
#953=ORIENTED_EDGE('',*,*,#752,.F.);
#954=ORIENTED_EDGE('',*,*,#753,.F.);
#955=ORIENTED_EDGE('',*,*,#754,.F.);
#956=ORIENTED_EDGE('',*,*,#755,.F.);
#957=ORIENTED_EDGE('',*,*,#756,.F.);
#958=ORIENTED_EDGE('',*,*,#716,.T.);
#959=ORIENTED_EDGE('',*,*,#715,.T.);
#960=ORIENTED_EDGE('',*,*,#741,.T.);
#961=ORIENTED_EDGE('',*,*,#742,.T.);
#962=ORIENTED_EDGE('',*,*,#712,.T.);
#963=ORIENTED_EDGE('',*,*,#739,.T.);
#964=ORIENTED_EDGE('',*,*,#740,.T.);
#965=ORIENTED_EDGE('',*,*,#709,.T.);
#966=ORIENTED_EDGE('',*,*,#708,.T.);
#967=ORIENTED_EDGE('',*,*,#707,.T.);
#968=ORIENTED_EDGE('',*,*,#706,.T.);
#969=ORIENTED_EDGE('',*,*,#737,.T.);
#970=ORIENTED_EDGE('',*,*,#738,.T.);
#971=ORIENTED_EDGE('',*,*,#728,.T.);
#972=ORIENTED_EDGE('',*,*,#727,.T.);
#973=ORIENTED_EDGE('',*,*,#743,.T.);
#974=ORIENTED_EDGE('',*,*,#744,.T.);
#975=ORIENTED_EDGE('',*,*,#724,.T.);
#976=ORIENTED_EDGE('',*,*,#723,.T.);
#977=ORIENTED_EDGE('',*,*,#722,.T.);
#978=ORIENTED_EDGE('',*,*,#721,.T.);
#979=ORIENTED_EDGE('',*,*,#745,.T.);
#980=ORIENTED_EDGE('',*,*,#746,.T.);
#981=ORIENTED_EDGE('',*,*,#718,.T.);
#982=ORIENTED_EDGE('',*,*,#717,.T.);
#983=ORIENTED_EDGE('',*,*,#748,.F.);
#984=ORIENTED_EDGE('',*,*,#747,.F.);
#985=ORIENTED_EDGE('',*,*,#750,.F.);
#986=ORIENTED_EDGE('',*,*,#749,.F.);
#987=ORIENTED_EDGE('',*,*,#731,.T.);
#988=ORIENTED_EDGE('',*,*,#730,.T.);
#989=ORIENTED_EDGE('',*,*,#736,.T.);
#990=ORIENTED_EDGE('',*,*,#735,.T.);
#991=ORIENTED_EDGE('',*,*,#734,.T.);
#992=ORIENTED_EDGE('',*,*,#733,.T.);
#993=ORIENTED_EDGE('',*,*,#732,.T.);
#994=ORIENTED_EDGE('',*,*,#757,.T.);
#995=ORIENTED_EDGE('',*,*,#758,.F.);
#996=ORIENTED_EDGE('',*,*,#681,.F.);
#997=ORIENTED_EDGE('',*,*,#759,.T.);
#998=ORIENTED_EDGE('',*,*,#760,.T.);
#999=ORIENTED_EDGE('',*,*,#761,.F.);
#1000=ORIENTED_EDGE('',*,*,#682,.F.);
#1001=ORIENTED_EDGE('',*,*,#758,.T.);
#1002=ORIENTED_EDGE('',*,*,#762,.T.);
#1003=ORIENTED_EDGE('',*,*,#763,.F.);
#1004=ORIENTED_EDGE('',*,*,#683,.F.);
#1005=ORIENTED_EDGE('',*,*,#761,.T.);
#1006=ORIENTED_EDGE('',*,*,#764,.T.);
#1007=ORIENTED_EDGE('',*,*,#765,.F.);
#1008=ORIENTED_EDGE('',*,*,#684,.F.);
#1009=ORIENTED_EDGE('',*,*,#763,.T.);
#1010=ORIENTED_EDGE('',*,*,#766,.T.);
#1011=ORIENTED_EDGE('',*,*,#767,.F.);
#1012=ORIENTED_EDGE('',*,*,#685,.F.);
#1013=ORIENTED_EDGE('',*,*,#765,.T.);
#1014=ORIENTED_EDGE('',*,*,#768,.T.);
#1015=ORIENTED_EDGE('',*,*,#769,.F.);
#1016=ORIENTED_EDGE('',*,*,#686,.F.);
#1017=ORIENTED_EDGE('',*,*,#767,.T.);
#1018=ORIENTED_EDGE('',*,*,#770,.T.);
#1019=ORIENTED_EDGE('',*,*,#771,.F.);
#1020=ORIENTED_EDGE('',*,*,#687,.F.);
#1021=ORIENTED_EDGE('',*,*,#769,.T.);
#1022=ORIENTED_EDGE('',*,*,#772,.T.);
#1023=ORIENTED_EDGE('',*,*,#773,.F.);
#1024=ORIENTED_EDGE('',*,*,#688,.F.);
#1025=ORIENTED_EDGE('',*,*,#771,.T.);
#1026=ORIENTED_EDGE('',*,*,#774,.T.);
#1027=ORIENTED_EDGE('',*,*,#775,.F.);
#1028=ORIENTED_EDGE('',*,*,#689,.F.);
#1029=ORIENTED_EDGE('',*,*,#773,.T.);
#1030=ORIENTED_EDGE('',*,*,#776,.T.);
#1031=ORIENTED_EDGE('',*,*,#777,.F.);
#1032=ORIENTED_EDGE('',*,*,#690,.F.);
#1033=ORIENTED_EDGE('',*,*,#775,.T.);
#1034=ORIENTED_EDGE('',*,*,#778,.T.);
#1035=ORIENTED_EDGE('',*,*,#779,.F.);
#1036=ORIENTED_EDGE('',*,*,#691,.F.);
#1037=ORIENTED_EDGE('',*,*,#777,.T.);
#1038=ORIENTED_EDGE('',*,*,#780,.T.);
#1039=ORIENTED_EDGE('',*,*,#781,.F.);
#1040=ORIENTED_EDGE('',*,*,#692,.F.);
#1041=ORIENTED_EDGE('',*,*,#779,.T.);
#1042=ORIENTED_EDGE('',*,*,#782,.T.);
#1043=ORIENTED_EDGE('',*,*,#783,.F.);
#1044=ORIENTED_EDGE('',*,*,#693,.F.);
#1045=ORIENTED_EDGE('',*,*,#781,.T.);
#1046=ORIENTED_EDGE('',*,*,#784,.T.);
#1047=ORIENTED_EDGE('',*,*,#785,.F.);
#1048=ORIENTED_EDGE('',*,*,#694,.F.);
#1049=ORIENTED_EDGE('',*,*,#783,.T.);
#1050=ORIENTED_EDGE('',*,*,#786,.T.);
#1051=ORIENTED_EDGE('',*,*,#787,.F.);
#1052=ORIENTED_EDGE('',*,*,#695,.F.);
#1053=ORIENTED_EDGE('',*,*,#785,.T.);
#1054=ORIENTED_EDGE('',*,*,#788,.T.);
#1055=ORIENTED_EDGE('',*,*,#789,.F.);
#1056=ORIENTED_EDGE('',*,*,#696,.F.);
#1057=ORIENTED_EDGE('',*,*,#787,.T.);
#1058=ORIENTED_EDGE('',*,*,#790,.T.);
#1059=ORIENTED_EDGE('',*,*,#791,.F.);
#1060=ORIENTED_EDGE('',*,*,#697,.F.);
#1061=ORIENTED_EDGE('',*,*,#789,.T.);
#1062=ORIENTED_EDGE('',*,*,#792,.T.);
#1063=ORIENTED_EDGE('',*,*,#793,.F.);
#1064=ORIENTED_EDGE('',*,*,#698,.F.);
#1065=ORIENTED_EDGE('',*,*,#791,.T.);
#1066=ORIENTED_EDGE('',*,*,#794,.T.);
#1067=ORIENTED_EDGE('',*,*,#795,.F.);
#1068=ORIENTED_EDGE('',*,*,#699,.F.);
#1069=ORIENTED_EDGE('',*,*,#793,.T.);
#1070=ORIENTED_EDGE('',*,*,#796,.T.);
#1071=ORIENTED_EDGE('',*,*,#797,.F.);
#1072=ORIENTED_EDGE('',*,*,#700,.F.);
#1073=ORIENTED_EDGE('',*,*,#795,.T.);
#1074=ORIENTED_EDGE('',*,*,#798,.T.);
#1075=ORIENTED_EDGE('',*,*,#799,.F.);
#1076=ORIENTED_EDGE('',*,*,#701,.F.);
#1077=ORIENTED_EDGE('',*,*,#797,.T.);
#1078=ORIENTED_EDGE('',*,*,#800,.T.);
#1079=ORIENTED_EDGE('',*,*,#801,.F.);
#1080=ORIENTED_EDGE('',*,*,#702,.F.);
#1081=ORIENTED_EDGE('',*,*,#799,.T.);
#1082=ORIENTED_EDGE('',*,*,#802,.T.);
#1083=ORIENTED_EDGE('',*,*,#803,.F.);
#1084=ORIENTED_EDGE('',*,*,#703,.F.);
#1085=ORIENTED_EDGE('',*,*,#801,.T.);
#1086=ORIENTED_EDGE('',*,*,#804,.T.);
#1087=ORIENTED_EDGE('',*,*,#759,.F.);
#1088=ORIENTED_EDGE('',*,*,#704,.F.);
#1089=ORIENTED_EDGE('',*,*,#803,.T.);
#1090=ORIENTED_EDGE('',*,*,#752,.T.);
#1091=ORIENTED_EDGE('',*,*,#751,.T.);
#1092=ORIENTED_EDGE('',*,*,#756,.T.);
#1093=ORIENTED_EDGE('',*,*,#755,.T.);
#1094=ORIENTED_EDGE('',*,*,#754,.T.);
#1095=ORIENTED_EDGE('',*,*,#753,.T.);
#1096=ORIENTED_EDGE('',*,*,#757,.F.);
#1097=ORIENTED_EDGE('',*,*,#804,.F.);
#1098=ORIENTED_EDGE('',*,*,#802,.F.);
#1099=ORIENTED_EDGE('',*,*,#800,.F.);
#1100=ORIENTED_EDGE('',*,*,#798,.F.);
#1101=ORIENTED_EDGE('',*,*,#796,.F.);
#1102=ORIENTED_EDGE('',*,*,#794,.F.);
#1103=ORIENTED_EDGE('',*,*,#792,.F.);
#1104=ORIENTED_EDGE('',*,*,#790,.F.);
#1105=ORIENTED_EDGE('',*,*,#788,.F.);
#1106=ORIENTED_EDGE('',*,*,#786,.F.);
#1107=ORIENTED_EDGE('',*,*,#784,.F.);
#1108=ORIENTED_EDGE('',*,*,#782,.F.);
#1109=ORIENTED_EDGE('',*,*,#780,.F.);
#1110=ORIENTED_EDGE('',*,*,#778,.F.);
#1111=ORIENTED_EDGE('',*,*,#776,.F.);
#1112=ORIENTED_EDGE('',*,*,#774,.F.);
#1113=ORIENTED_EDGE('',*,*,#772,.F.);
#1114=ORIENTED_EDGE('',*,*,#770,.F.);
#1115=ORIENTED_EDGE('',*,*,#768,.F.);
#1116=ORIENTED_EDGE('',*,*,#766,.F.);
#1117=ORIENTED_EDGE('',*,*,#764,.F.);
#1118=ORIENTED_EDGE('',*,*,#762,.F.);
#1119=ORIENTED_EDGE('',*,*,#760,.F.);
#1120=ORIENTED_EDGE('',*,*,#805,.T.);
#1121=ORIENTED_EDGE('',*,*,#806,.T.);
#1122=ORIENTED_EDGE('',*,*,#807,.T.);
#1123=ORIENTED_EDGE('',*,*,#808,.T.);
#1124=ORIENTED_EDGE('',*,*,#809,.T.);
#1125=ORIENTED_EDGE('',*,*,#810,.T.);
#1126=ORIENTED_EDGE('',*,*,#811,.T.);
#1127=ORIENTED_EDGE('',*,*,#812,.T.);
#1128=ORIENTED_EDGE('',*,*,#813,.T.);
#1129=ORIENTED_EDGE('',*,*,#814,.T.);
#1130=ORIENTED_EDGE('',*,*,#815,.T.);
#1131=ORIENTED_EDGE('',*,*,#816,.T.);
#1132=ORIENTED_EDGE('',*,*,#817,.T.);
#1133=ORIENTED_EDGE('',*,*,#818,.T.);
#1134=ORIENTED_EDGE('',*,*,#819,.T.);
#1135=ORIENTED_EDGE('',*,*,#820,.T.);
#1136=ORIENTED_EDGE('',*,*,#821,.T.);
#1137=ORIENTED_EDGE('',*,*,#822,.T.);
#1138=ORIENTED_EDGE('',*,*,#823,.T.);
#1139=ORIENTED_EDGE('',*,*,#824,.T.);
#1140=ORIENTED_EDGE('',*,*,#825,.T.);
#1141=ORIENTED_EDGE('',*,*,#826,.T.);
#1142=ORIENTED_EDGE('',*,*,#827,.T.);
#1143=ORIENTED_EDGE('',*,*,#828,.T.);
#1144=ORIENTED_EDGE('',*,*,#829,.T.);
#1145=ORIENTED_EDGE('',*,*,#830,.T.);
#1146=ORIENTED_EDGE('',*,*,#831,.F.);
#1147=ORIENTED_EDGE('',*,*,#832,.F.);
#1148=ORIENTED_EDGE('',*,*,#833,.F.);
#1149=ORIENTED_EDGE('',*,*,#834,.F.);
#1150=ORIENTED_EDGE('',*,*,#835,.F.);
#1151=ORIENTED_EDGE('',*,*,#836,.T.);
#1152=ORIENTED_EDGE('',*,*,#837,.T.);
#1153=ORIENTED_EDGE('',*,*,#838,.F.);
#1154=ORIENTED_EDGE('',*,*,#839,.F.);
#1155=ORIENTED_EDGE('',*,*,#840,.T.);
#1156=ORIENTED_EDGE('',*,*,#841,.T.);
#1157=ORIENTED_EDGE('',*,*,#842,.F.);
#1158=ORIENTED_EDGE('',*,*,#843,.T.);
#1159=ORIENTED_EDGE('',*,*,#844,.T.);
#1160=ORIENTED_EDGE('',*,*,#845,.T.);
#1161=ORIENTED_EDGE('',*,*,#846,.T.);
#1162=ORIENTED_EDGE('',*,*,#847,.F.);
#1163=ORIENTED_EDGE('',*,*,#848,.F.);
#1164=ORIENTED_EDGE('',*,*,#849,.F.);
#1165=ORIENTED_EDGE('',*,*,#850,.F.);
#1166=ORIENTED_EDGE('',*,*,#851,.F.);
#1167=ORIENTED_EDGE('',*,*,#852,.F.);
#1168=ORIENTED_EDGE('',*,*,#853,.F.);
#1169=ORIENTED_EDGE('',*,*,#854,.T.);
#1170=ORIENTED_EDGE('',*,*,#855,.T.);
#1171=ORIENTED_EDGE('',*,*,#856,.F.);
#1172=ORIENTED_EDGE('',*,*,#857,.F.);
#1173=ORIENTED_EDGE('',*,*,#858,.T.);
#1174=ORIENTED_EDGE('',*,*,#859,.T.);
#1175=ORIENTED_EDGE('',*,*,#860,.F.);
#1176=ORIENTED_EDGE('',*,*,#861,.T.);
#1177=ORIENTED_EDGE('',*,*,#862,.T.);
#1178=ORIENTED_EDGE('',*,*,#863,.T.);
#1179=ORIENTED_EDGE('',*,*,#864,.T.);
#1180=ORIENTED_EDGE('',*,*,#865,.T.);
#1181=ORIENTED_EDGE('',*,*,#866,.T.);
#1182=ORIENTED_EDGE('',*,*,#867,.T.);
#1183=ORIENTED_EDGE('',*,*,#868,.F.);
#1184=ORIENTED_EDGE('',*,*,#869,.T.);
#1185=ORIENTED_EDGE('',*,*,#870,.T.);
#1186=ORIENTED_EDGE('',*,*,#871,.F.);
#1187=PLANE('',#1277);
#1188=PLANE('',#1290);
#1189=PLANE('',#1291);
#1190=PLANE('',#1292);
#1191=PLANE('',#1293);
#1192=PLANE('',#1294);
#1193=PLANE('',#1295);
#1194=PLANE('',#1296);
#1195=PLANE('',#1297);
#1196=PLANE('',#1300);
#1197=PLANE('',#1303);
#1198=PLANE('',#1306);
#1199=PLANE('',#1309);
#1200=PLANE('',#1312);
#1201=PLANE('',#1315);
#1202=PLANE('',#1318);
#1203=PLANE('',#1321);
#1204=PLANE('',#1324);
#1205=PLANE('',#1327);
#1206=PLANE('',#1330);
#1207=PLANE('',#1333);
#1208=PLANE('',#1334);
#1209=PLANE('',#1335);
#1210=PLANE('',#1336);
#1211=PLANE('',#1337);
#1212=PLANE('',#1338);
#1213=PLANE('',#1339);
#1214=PLANE('',#1340);
#1215=PLANE('',#1341);
#1216=PLANE('',#1342);
#1217=PLANE('',#1343);
#1218=PLANE('',#1344);
#1219=ADVANCED_FACE('',(#67,#61,#62),#1187,.F.);
#1220=ADVANCED_FACE('',(#68),#1188,.F.);
#1221=ADVANCED_FACE('',(#69),#1189,.F.);
#1222=ADVANCED_FACE('',(#70),#1190,.F.);
#1223=ADVANCED_FACE('',(#71),#1191,.F.);
#1224=ADVANCED_FACE('',(#72),#1192,.F.);
#1225=ADVANCED_FACE('',(#73,#63),#1193,.F.);
#1226=ADVANCED_FACE('',(#74,#64),#1194,.F.);
#1227=ADVANCED_FACE('',(#75),#1195,.F.);
#1228=ADVANCED_FACE('',(#76),#49,.T.);
#1229=ADVANCED_FACE('',(#77),#1196,.F.);
#1230=ADVANCED_FACE('',(#78),#50,.F.);
#1231=ADVANCED_FACE('',(#79),#1197,.F.);
#1232=ADVANCED_FACE('',(#80),#51,.T.);
#1233=ADVANCED_FACE('',(#81),#1198,.F.);
#1234=ADVANCED_FACE('',(#82),#52,.T.);
#1235=ADVANCED_FACE('',(#83),#1199,.F.);
#1236=ADVANCED_FACE('',(#84),#53,.F.);
#1237=ADVANCED_FACE('',(#85),#1200,.F.);
#1238=ADVANCED_FACE('',(#86),#54,.T.);
#1239=ADVANCED_FACE('',(#87),#1201,.F.);
#1240=ADVANCED_FACE('',(#88),#55,.T.);
#1241=ADVANCED_FACE('',(#89),#1202,.F.);
#1242=ADVANCED_FACE('',(#90),#56,.F.);
#1243=ADVANCED_FACE('',(#91),#1203,.F.);
#1244=ADVANCED_FACE('',(#92),#57,.T.);
#1245=ADVANCED_FACE('',(#93),#1204,.F.);
#1246=ADVANCED_FACE('',(#94),#58,.T.);
#1247=ADVANCED_FACE('',(#95),#1205,.F.);
#1248=ADVANCED_FACE('',(#96),#59,.F.);
#1249=ADVANCED_FACE('',(#97),#1206,.F.);
#1250=ADVANCED_FACE('',(#98),#60,.T.);
#1251=ADVANCED_FACE('',(#99),#1207,.F.);
#1252=ADVANCED_FACE('',(#100),#1208,.F.);
#1253=ADVANCED_FACE('',(#101),#1209,.T.);
#1254=ADVANCED_FACE('',(#102),#1210,.F.);
#1255=ADVANCED_FACE('',(#103,#65),#1211,.F.);
#1256=ADVANCED_FACE('',(#104),#1212,.F.);
#1257=ADVANCED_FACE('',(#105),#1213,.F.);
#1258=ADVANCED_FACE('',(#106,#66),#1214,.F.);
#1259=ADVANCED_FACE('',(#107),#1215,.F.);
#1260=ADVANCED_FACE('',(#108),#1216,.F.);
#1261=ADVANCED_FACE('',(#109),#1217,.F.);
#1262=ADVANCED_FACE('',(#110),#1218,.F.);
#1263=CLOSED_SHELL('',(#1219,#1220,#1221,#1222,#1223,#1224,#1225,#1226,
#1227,#1228,#1229,#1230,#1231,#1232,#1233,#1234,#1235,#1236,#1237,#1238,
#1239,#1240,#1241,#1242,#1243,#1244,#1245,#1246,#1247,#1248,#1249,#1250,
#1251,#1252,#1253));
#1264=DERIVED_UNIT_ELEMENT(#1266,1.);
#1265=DERIVED_UNIT_ELEMENT(#2053,-3.);
#1266=(
MASS_UNIT()
NAMED_UNIT(*)
SI_UNIT(.KILO.,.GRAM.)
);
#1267=DERIVED_UNIT((#1264,#1265));
#1268=MEASURE_REPRESENTATION_ITEM('density measure',
POSITIVE_RATIO_MEASURE(7850.),#1267);
#1269=PROPERTY_DEFINITION_REPRESENTATION(#1274,#1271);
#1270=PROPERTY_DEFINITION_REPRESENTATION(#1275,#1272);
#1271=REPRESENTATION('material name',(#1273),#2050);
#1272=REPRESENTATION('density',(#1268),#2050);
#1273=DESCRIPTIVE_REPRESENTATION_ITEM('Steel','Steel');
#1274=PROPERTY_DEFINITION('material property','material name',#2060);
#1275=PROPERTY_DEFINITION('material property','density of part',#2060);
#1276=AXIS2_PLACEMENT_3D('',#1650,#1345,#1346);
#1277=AXIS2_PLACEMENT_3D('',#1651,#1347,#1348);
#1278=AXIS2_PLACEMENT_3D('',#1654,#1349,#1350);
#1279=AXIS2_PLACEMENT_3D('',#1658,#1352,#1353);
#1280=AXIS2_PLACEMENT_3D('',#1662,#1355,#1356);
#1281=AXIS2_PLACEMENT_3D('',#1666,#1358,#1359);
#1282=AXIS2_PLACEMENT_3D('',#1670,#1361,#1362);
#1283=AXIS2_PLACEMENT_3D('',#1674,#1364,#1365);
#1284=AXIS2_PLACEMENT_3D('',#1678,#1367,#1368);
#1285=AXIS2_PLACEMENT_3D('',#1682,#1370,#1371);
#1286=AXIS2_PLACEMENT_3D('',#1686,#1373,#1374);
#1287=AXIS2_PLACEMENT_3D('',#1690,#1376,#1377);
#1288=AXIS2_PLACEMENT_3D('',#1694,#1379,#1380);
#1289=AXIS2_PLACEMENT_3D('',#1698,#1382,#1383);
#1290=AXIS2_PLACEMENT_3D('',#1764,#1417,#1418);
#1291=AXIS2_PLACEMENT_3D('',#1768,#1421,#1422);
#1292=AXIS2_PLACEMENT_3D('',#1772,#1425,#1426);
#1293=AXIS2_PLACEMENT_3D('',#1776,#1429,#1430);
#1294=AXIS2_PLACEMENT_3D('',#1780,#1433,#1434);
#1295=AXIS2_PLACEMENT_3D('',#1784,#1437,#1438);
#1296=AXIS2_PLACEMENT_3D('',#1805,#1449,#1450);
#1297=AXIS2_PLACEMENT_3D('',#1806,#1451,#1452);
#1298=AXIS2_PLACEMENT_3D('',#1807,#1453,#1454);
#1299=AXIS2_PLACEMENT_3D('',#1810,#1455,#1456);
#1300=AXIS2_PLACEMENT_3D('',#1813,#1459,#1460);
#1301=AXIS2_PLACEMENT_3D('',#1817,#1463,#1464);
#1302=AXIS2_PLACEMENT_3D('',#1819,#1465,#1466);
#1303=AXIS2_PLACEMENT_3D('',#1821,#1468,#1469);
#1304=AXIS2_PLACEMENT_3D('',#1825,#1472,#1473);
#1305=AXIS2_PLACEMENT_3D('',#1827,#1474,#1475);
#1306=AXIS2_PLACEMENT_3D('',#1829,#1477,#1478);
#1307=AXIS2_PLACEMENT_3D('',#1833,#1481,#1482);
#1308=AXIS2_PLACEMENT_3D('',#1835,#1483,#1484);
#1309=AXIS2_PLACEMENT_3D('',#1837,#1486,#1487);
#1310=AXIS2_PLACEMENT_3D('',#1841,#1490,#1491);
#1311=AXIS2_PLACEMENT_3D('',#1843,#1492,#1493);
#1312=AXIS2_PLACEMENT_3D('',#1845,#1495,#1496);
#1313=AXIS2_PLACEMENT_3D('',#1849,#1499,#1500);
#1314=AXIS2_PLACEMENT_3D('',#1851,#1501,#1502);
#1315=AXIS2_PLACEMENT_3D('',#1853,#1504,#1505);
#1316=AXIS2_PLACEMENT_3D('',#1857,#1508,#1509);
#1317=AXIS2_PLACEMENT_3D('',#1859,#1510,#1511);
#1318=AXIS2_PLACEMENT_3D('',#1861,#1513,#1514);
#1319=AXIS2_PLACEMENT_3D('',#1865,#1517,#1518);
#1320=AXIS2_PLACEMENT_3D('',#1867,#1519,#1520);
#1321=AXIS2_PLACEMENT_3D('',#1869,#1522,#1523);
#1322=AXIS2_PLACEMENT_3D('',#1873,#1526,#1527);
#1323=AXIS2_PLACEMENT_3D('',#1875,#1528,#1529);
#1324=AXIS2_PLACEMENT_3D('',#1877,#1531,#1532);
#1325=AXIS2_PLACEMENT_3D('',#1881,#1535,#1536);
#1326=AXIS2_PLACEMENT_3D('',#1883,#1537,#1538);
#1327=AXIS2_PLACEMENT_3D('',#1885,#1540,#1541);
#1328=AXIS2_PLACEMENT_3D('',#1889,#1544,#1545);
#1329=AXIS2_PLACEMENT_3D('',#1891,#1546,#1547);
#1330=AXIS2_PLACEMENT_3D('',#1893,#1549,#1550);
#1331=AXIS2_PLACEMENT_3D('',#1897,#1553,#1554);
#1332=AXIS2_PLACEMENT_3D('',#1899,#1555,#1556);
#1333=AXIS2_PLACEMENT_3D('',#1901,#1558,#1559);
#1334=AXIS2_PLACEMENT_3D('',#1903,#1561,#1562);
#1335=AXIS2_PLACEMENT_3D('',#1904,#1563,#1564);
#1336=AXIS2_PLACEMENT_3D('',#1905,#1565,#1566);
#1337=AXIS2_PLACEMENT_3D('',#1918,#1573,#1574);
#1338=AXIS2_PLACEMENT_3D('',#1967,#1599,#1600);
#1339=AXIS2_PLACEMENT_3D('',#1976,#1605,#1606);
#1340=AXIS2_PLACEMENT_3D('',#1985,#1611,#1612);
#1341=AXIS2_PLACEMENT_3D('',#2006,#1623,#1624);
#1342=AXIS2_PLACEMENT_3D('',#2015,#1629,#1630);
#1343=AXIS2_PLACEMENT_3D('',#2024,#1635,#1636);
#1344=AXIS2_PLACEMENT_3D('',#2039,#1644,#1645);
#1345=DIRECTION('axis',(0.,0.,1.));
#1346=DIRECTION('refdir',(1.,0.,0.));
#1347=DIRECTION('center_axis',(-0.996194698091746,-0.0871557427476584,0.));
#1348=DIRECTION('ref_axis',(0.0871557427476584,-0.996194698091746,0.));
#1349=DIRECTION('center_axis',(0.996194698091746,0.0871557427476584,0.));
#1350=DIRECTION('ref_axis',(0.0871557427476584,-0.996194698091746,0.));
#1351=DIRECTION('',(0.,0.,1.));
#1352=DIRECTION('center_axis',(-0.996194698091746,-0.0871557427476584,0.));
#1353=DIRECTION('ref_axis',(0.0871557427476583,-0.996194698091746,0.));
#1354=DIRECTION('',(-0.087155742747658,0.996194698091746,0.));
#1355=DIRECTION('center_axis',(0.996194698091746,0.0871557427476584,0.));
#1356=DIRECTION('ref_axis',(-0.0871557427476584,0.996194698091746,0.));
#1357=DIRECTION('',(0.,0.,1.));
#1358=DIRECTION('center_axis',(0.996194698091746,0.0871557427476584,0.));
#1359=DIRECTION('ref_axis',(0.0871557427476584,-0.996194698091746,0.));
#1360=DIRECTION('',(0.087155742747658,-0.996194698091746,0.));
#1361=DIRECTION('center_axis',(-0.996194698091746,-0.0871557427476584,0.));
#1362=DIRECTION('ref_axis',(-0.0871557427476583,0.996194698091746,0.));
#1363=DIRECTION('',(0.,0.,1.));
#1364=DIRECTION('center_axis',(0.996194698091746,0.0871557427476584,0.));
#1365=DIRECTION('ref_axis',(-0.0871557427476584,0.996194698091746,0.));
#1366=DIRECTION('',(0.0871557427476583,-0.996194698091746,0.));
#1367=DIRECTION('center_axis',(0.996194698091746,0.0871557427476584,0.));
#1368=DIRECTION('ref_axis',(0.0871557427476584,-0.996194698091746,0.));
#1369=DIRECTION('',(0.,2.27504718160893E-16,-1.));
#1370=DIRECTION('center_axis',(-0.996194698091746,-0.0871557427476584,0.));
#1371=DIRECTION('ref_axis',(-0.0871557427476583,0.996194698091746,0.));
#1372=DIRECTION('',(0.0871557427476577,-0.996194698091746,-6.93889390390723E-16));
#1373=DIRECTION('center_axis',(0.996194698091746,0.0871557427476584,0.));
#1374=DIRECTION('ref_axis',(0.0871557427476584,-0.996194698091746,0.));
#1375=DIRECTION('',(0.,0.,-1.));
#1376=DIRECTION('center_axis',(0.996194698091746,0.0871557427476584,0.));
#1377=DIRECTION('ref_axis',(-0.0871557427476584,0.996194698091746,0.));
#1378=DIRECTION('',(-0.0871557427476577,0.996194698091746,0.));
#1379=DIRECTION('center_axis',(-0.996194698091746,-0.0871557427476584,0.));
#1380=DIRECTION('ref_axis',(-0.0871557427476584,0.996194698091746,0.));
#1381=DIRECTION('',(0.,-2.44902137784961E-16,-1.));
#1382=DIRECTION('center_axis',(0.996194698091746,0.0871557427476584,0.));
#1383=DIRECTION('ref_axis',(0.0871557427476584,-0.996194698091746,0.));
#1384=DIRECTION('',(-0.0871557427476583,0.996194698091746,0.));
#1385=DIRECTION('',(0.,0.,-1.));
#1386=DIRECTION('',(0.,0.,-1.));
#1387=DIRECTION('',(0.0871557427476584,-0.996194698091746,0.));
#1388=DIRECTION('',(0.,0.,-1.));
#1389=DIRECTION('',(0.0871557427476584,-0.996194698091746,0.));
#1390=DIRECTION('',(0.,0.,-1.));
#1391=DIRECTION('',(0.0871557427476584,-0.996194698091746,0.));
#1392=DIRECTION('',(0.0871557427476584,-0.996194698091746,0.));
#1393=DIRECTION('',(0.0871557427476584,-0.996194698091746,0.));
#1394=DIRECTION('',(0.,0.,1.));
#1395=DIRECTION('',(0.0871557427476584,-0.996194698091746,0.));
#1396=DIRECTION('',(0.,0.,1.));
#1397=DIRECTION('',(0.0871557427476584,-0.996194698091746,0.));
#1398=DIRECTION('',(0.,0.,1.));
#1399=DIRECTION('',(0.,0.,1.));
#1400=DIRECTION('',(-0.0871557427476584,0.996194698091746,0.));
#1401=DIRECTION('',(0.,0.,1.));
#1402=DIRECTION('',(-0.0871557427476584,0.996194698091746,0.));
#1403=DIRECTION('',(0.,0.,1.));
#1404=DIRECTION('',(-0.0871557427476584,0.996194698091746,0.));
#1405=DIRECTION('',(-0.0871557427476584,0.996194698091746,0.));
#1406=DIRECTION('',(0.,0.,-1.));
#1407=DIRECTION('',(-0.0871557427476584,0.996194698091746,0.));
#1408=DIRECTION('',(0.,0.,-1.));
#1409=DIRECTION('',(-0.0871557427476584,0.996194698091746,2.462323629698E-16));
#1410=DIRECTION('',(0.,0.,-1.));
#1411=DIRECTION('',(0.0871557427476584,-0.996194698091746,0.));
#1412=DIRECTION('',(-0.047542373909358,0.543411820381397,-0.83811891528162));
#1413=DIRECTION('',(0.0734283103734712,-0.839289428072168,-0.538703572627833));
#1414=DIRECTION('',(0.0473599927389031,-0.541327194064059,0.839477158744956));
#1415=DIRECTION('',(0.,0.,1.));
#1416=DIRECTION('',(-0.0871557427476584,0.996194698091746,0.));
#1417=DIRECTION('center_axis',(-0.996194698091746,-0.0871557427476584,0.));
#1418=DIRECTION('ref_axis',(0.0871557427476584,-0.996194698091746,0.));
#1419=DIRECTION('',(-0.0871557427476584,0.996194698091746,0.));
#1420=DIRECTION('',(0.,0.,-1.));
#1421=DIRECTION('center_axis',(-0.996194698091746,-0.0871557427476584,0.));
#1422=DIRECTION('ref_axis',(0.0871557427476584,-0.996194698091746,0.));
#1423=DIRECTION('',(0.,0.,-1.));
#1424=DIRECTION('',(0.0871557427476584,-0.996194698091746,0.));
#1425=DIRECTION('center_axis',(-0.996194698091746,-0.0871557427476584,0.));
#1426=DIRECTION('ref_axis',(0.0871557427476584,-0.996194698091746,0.));
#1427=DIRECTION('',(0.0871557427476584,-0.996194698091746,0.));
#1428=DIRECTION('',(2.60255640654087E-7,-2.97473558476487E-6,0.999999999995542));
#1429=DIRECTION('center_axis',(-0.996194698091746,-0.0871557427476584,0.));
#1430=DIRECTION('ref_axis',(0.0871557427476584,-0.996194698091746,0.));
#1431=DIRECTION('',(-0.0871557427476584,0.996194698091746,0.));
#1432=DIRECTION('',(0.,0.,-1.));
#1433=DIRECTION('center_axis',(-0.996194698091746,-0.0871557427476584,0.));
#1434=DIRECTION('ref_axis',(0.0871557427476584,-0.996194698091746,0.));
#1435=DIRECTION('',(0.,0.,1.));
#1436=DIRECTION('',(-0.0871557427476584,0.996194698091746,0.));
#1437=DIRECTION('center_axis',(-0.996194698091746,-0.0871557427476584,0.));
#1438=DIRECTION('ref_axis',(0.0871557427476584,-0.996194698091746,0.));
#1439=DIRECTION('',(0.,0.,-1.));
#1440=DIRECTION('',(-0.0871557427476584,0.996194698091746,-1.96985076219972E-16));
#1441=DIRECTION('',(-6.84123404028135E-17,7.81956628958469E-16,1.));
#1442=DIRECTION('',(0.0871557427476584,-0.996194698091746,0.));
#1443=DIRECTION('',(0.,0.,1.));
#1444=DIRECTION('',(-0.0871557427476584,0.996194698091746,0.));
#1445=DIRECTION('',(0.,0.,-1.));
#1446=DIRECTION('',(0.0871557427476584,-0.996194698091746,0.));
#1447=DIRECTION('',(1.7103032084595E-16,-1.95488551262726E-15,1.));
#1448=DIRECTION('',(-0.0871557427476584,0.996194698091746,-1.23116181485193E-16));
#1449=DIRECTION('center_axis',(-0.996194698091746,-0.0871557427476584,0.));
#1450=DIRECTION('ref_axis',(0.0871557427476584,-0.996194698091746,0.));
#1451=DIRECTION('center_axis',(-0.996194698091746,-0.0871557427476584,0.));
#1452=DIRECTION('ref_axis',(0.0871557427476584,-0.996194698091746,0.));
#1453=DIRECTION('center_axis',(-0.996194698091746,-0.0871557427476584,0.));
#1454=DIRECTION('ref_axis',(0.0871557427476584,-0.996194698091746,0.));
#1455=DIRECTION('center_axis',(0.996194698091746,0.0871557427476584,0.));
#1456=DIRECTION('ref_axis',(0.0871557427476584,-0.996194698091746,0.));
#1457=DIRECTION('',(-0.996194698091746,-0.0871557427476584,0.));
#1458=DIRECTION('',(-0.996194698091746,-0.0871557427476584,0.));
#1459=DIRECTION('center_axis',(0.0871557427476584,-0.996194698091746,0.));
#1460=DIRECTION('ref_axis',(0.996194698091746,0.0871557427476584,0.));
#1461=DIRECTION('',(0.,0.,1.));
#1462=DIRECTION('',(-0.996194698091746,-0.0871557427476584,0.));
#1463=DIRECTION('center_axis',(-0.996194698091746,-0.0871557427476584,0.));
#1464=DIRECTION('ref_axis',(0.0871557427476584,-0.996194698091746,0.));
#1465=DIRECTION('center_axis',(-0.996194698091746,-0.0871557427476584,0.));
#1466=DIRECTION('ref_axis',(0.0871557427476583,-0.996194698091746,0.));
#1467=DIRECTION('',(-0.996194698091746,-0.0871557427476584,0.));
#1468=DIRECTION('center_axis',(0.,0.,1.));
#1469=DIRECTION('ref_axis',(1.,0.,0.));
#1470=DIRECTION('',(-0.087155742747658,0.996194698091746,0.));
#1471=DIRECTION('',(-0.996194698091746,-0.0871557427476584,0.));
#1472=DIRECTION('center_axis',(-0.996194698091746,-0.0871557427476584,0.));
#1473=DIRECTION('ref_axis',(0.0871557427476584,-0.996194698091746,0.));
#1474=DIRECTION('center_axis',(0.996194698091746,0.0871557427476584,0.));
#1475=DIRECTION('ref_axis',(-0.0871557427476584,0.996194698091746,0.));
#1476=DIRECTION('',(-0.996194698091746,-0.0871557427476584,0.));
#1477=DIRECTION('center_axis',(0.0871557427476584,-0.996194698091746,0.));
#1478=DIRECTION('ref_axis',(0.996194698091746,0.0871557427476584,0.));
#1479=DIRECTION('',(0.,0.,1.));
#1480=DIRECTION('',(-0.996194698091746,-0.0871557427476584,0.));
#1481=DIRECTION('center_axis',(-0.996194698091746,-0.0871557427476584,0.));
#1482=DIRECTION('ref_axis',(0.0871557427476584,-0.996194698091746,0.));
#1483=DIRECTION('center_axis',(0.996194698091746,0.0871557427476584,0.));
#1484=DIRECTION('ref_axis',(0.0871557427476584,-0.996194698091746,0.));
#1485=DIRECTION('',(-0.996194698091746,-0.0871557427476584,0.));
#1486=DIRECTION('center_axis',(0.,0.,-1.));
#1487=DIRECTION('ref_axis',(-1.,0.,0.));
#1488=DIRECTION('',(0.087155742747658,-0.996194698091746,0.));
#1489=DIRECTION('',(-0.996194698091746,-0.0871557427476584,0.));
#1490=DIRECTION('center_axis',(-0.996194698091746,-0.0871557427476584,0.));
#1491=DIRECTION('ref_axis',(0.0871557427476584,-0.996194698091746,0.));
#1492=DIRECTION('center_axis',(-0.996194698091746,-0.0871557427476584,0.));
#1493=DIRECTION('ref_axis',(-0.0871557427476583,0.996194698091746,0.));
#1494=DIRECTION('',(-0.996194698091746,-0.0871557427476584,0.));
#1495=DIRECTION('center_axis',(0.0871557427476584,-0.996194698091746,0.));
#1496=DIRECTION('ref_axis',(0.996194698091746,0.0871557427476584,0.));
#1497=DIRECTION('',(0.,0.,1.));
#1498=DIRECTION('',(-0.996194698091746,-0.0871557427476584,0.));
#1499=DIRECTION('center_axis',(-0.996194698091746,-0.0871557427476584,0.));
#1500=DIRECTION('ref_axis',(0.0871557427476584,-0.996194698091746,0.));
#1501=DIRECTION('center_axis',(0.996194698091746,0.0871557427476584,0.));
#1502=DIRECTION('ref_axis',(-0.0871557427476584,0.996194698091746,0.));
#1503=DIRECTION('',(-0.996194698091746,-0.0871557427476584,0.));
#1504=DIRECTION('center_axis',(0.,0.,-1.));
#1505=DIRECTION('ref_axis',(-1.,0.,0.));
#1506=DIRECTION('',(0.0871557427476583,-0.996194698091746,0.));
#1507=DIRECTION('',(-0.996194698091746,-0.0871557427476584,0.));
#1508=DIRECTION('center_axis',(-0.996194698091746,-0.0871557427476584,0.));
#1509=DIRECTION('ref_axis',(0.0871557427476584,-0.996194698091746,0.));
#1510=DIRECTION('center_axis',(0.996194698091746,0.0871557427476584,0.));
#1511=DIRECTION('ref_axis',(0.0871557427476584,-0.996194698091746,0.));
#1512=DIRECTION('',(-0.996194698091746,-0.0871557427476584,0.));
#1513=DIRECTION('center_axis',(-0.0871557427476584,0.996194698091746,2.26638994022738E-16));
#1514=DIRECTION('ref_axis',(-0.996194698091746,-0.0871557427476584,3.08148791101958E-33));
#1515=DIRECTION('',(0.,2.27504718160893E-16,-1.));
#1516=DIRECTION('',(-0.996194698091746,-0.0871557427476584,0.));
#1517=DIRECTION('center_axis',(-0.996194698091746,-0.0871557427476584,0.));
#1518=DIRECTION('ref_axis',(0.0871557427476584,-0.996194698091746,0.));
#1519=DIRECTION('center_axis',(-0.996194698091746,-0.0871557427476584,0.));
#1520=DIRECTION('ref_axis',(-0.0871557427476583,0.996194698091746,0.));
#1521=DIRECTION('',(-0.996194698091746,-0.0871557427476584,0.));
#1522=DIRECTION('center_axis',(-6.04764452042233E-17,6.91248931769351E-16,
-1.));
#1523=DIRECTION('ref_axis',(0.,1.,6.91248931769351E-16));
#1524=DIRECTION('',(0.0871557427476577,-0.996194698091746,-6.93889390390723E-16));
#1525=DIRECTION('',(-0.996194698091746,-0.0871557427476584,0.));
#1526=DIRECTION('center_axis',(-0.996194698091746,-0.0871557427476584,0.));
#1527=DIRECTION('ref_axis',(0.0871557427476584,-0.996194698091746,0.));
#1528=DIRECTION('center_axis',(0.996194698091746,0.0871557427476584,0.));
#1529=DIRECTION('ref_axis',(0.0871557427476584,-0.996194698091746,0.));
#1530=DIRECTION('',(-0.996194698091746,-0.0871557427476584,0.));
#1531=DIRECTION('center_axis',(-0.0871557427476584,0.996194698091746,0.));
#1532=DIRECTION('ref_axis',(-0.996194698091746,-0.0871557427476584,0.));
#1533=DIRECTION('',(0.,0.,-1.));
#1534=DIRECTION('',(-0.996194698091746,-0.0871557427476584,0.));
#1535=DIRECTION('center_axis',(-0.996194698091746,-0.0871557427476584,0.));
#1536=DIRECTION('ref_axis',(0.0871557427476584,-0.996194698091746,0.));
#1537=DIRECTION('center_axis',(0.996194698091746,0.0871557427476584,0.));
#1538=DIRECTION('ref_axis',(-0.0871557427476584,0.996194698091746,0.));
#1539=DIRECTION('',(-0.996194698091746,-0.0871557427476584,0.));
#1540=DIRECTION('center_axis',(0.,0.,1.));
#1541=DIRECTION('ref_axis',(1.,0.,0.));
#1542=DIRECTION('',(-0.0871557427476577,0.996194698091746,0.));
#1543=DIRECTION('',(-0.996194698091746,-0.0871557427476584,0.));
#1544=DIRECTION('center_axis',(-0.996194698091746,-0.0871557427476584,0.));
#1545=DIRECTION('ref_axis',(0.0871557427476584,-0.996194698091746,0.));
#1546=DIRECTION('center_axis',(-0.996194698091746,-0.0871557427476584,0.));
#1547=DIRECTION('ref_axis',(-0.0871557427476584,0.996194698091746,0.));
#1548=DIRECTION('',(-0.996194698091746,-0.0871557427476584,0.));
#1549=DIRECTION('center_axis',(-0.0871557427476584,0.996194698091746,-2.43970211212712E-16));
#1550=DIRECTION('ref_axis',(-0.996194698091746,-0.0871557427476584,0.));
#1551=DIRECTION('',(0.,-2.44902137784961E-16,-1.));
#1552=DIRECTION('',(-0.996194698091746,-0.0871557427476584,0.));
#1553=DIRECTION('center_axis',(-0.996194698091746,-0.0871557427476584,0.));
#1554=DIRECTION('ref_axis',(0.0871557427476584,-0.996194698091746,0.));
#1555=DIRECTION('center_axis',(0.996194698091746,0.0871557427476584,0.));
#1556=DIRECTION('ref_axis',(0.0871557427476584,-0.996194698091746,0.));
#1557=DIRECTION('',(-0.996194698091746,-0.0871557427476584,0.));
#1558=DIRECTION('center_axis',(0.,0.,1.));
#1559=DIRECTION('ref_axis',(1.,0.,0.));
#1560=DIRECTION('',(-0.0871557427476583,0.996194698091746,0.));
#1561=DIRECTION('center_axis',(-0.996194698091746,-0.0871557427476584,0.));
#1562=DIRECTION('ref_axis',(0.0871557427476584,-0.996194698091746,0.));
#1563=DIRECTION('center_axis',(-0.996194698091746,-0.0871557427476584,0.));
#1564=DIRECTION('ref_axis',(0.0871557427476584,-0.996194698091746,0.));
#1565=DIRECTION('center_axis',(-0.996194698091746,-0.0871557427476584,0.));
#1566=DIRECTION('ref_axis',(0.0871557427476584,-0.996194698091746,0.));
#1567=DIRECTION('',(-0.0871557427476584,0.996194698091746,0.));
#1568=DIRECTION('',(0.,0.,1.));
#1569=DIRECTION('',(-0.0871557427476584,0.996194698091746,0.));
#1570=DIRECTION('',(0.,0.,1.));
#1571=DIRECTION('',(0.0871557427476584,-0.996194698091746,0.));
#1572=DIRECTION('',(0.,0.,-1.));
#1573=DIRECTION('center_axis',(-0.996194698091746,-0.0871557427476584,0.));
#1574=DIRECTION('ref_axis',(0.0871557427476584,-0.996194698091746,0.));
#1575=DIRECTION('',(0.,0.,1.));
#1576=DIRECTION('',(0.0871557427476584,-0.996194698091746,0.));
#1577=DIRECTION('',(2.60255640654087E-7,-2.97473558476487E-6,0.999999999995542));
#1578=DIRECTION('',(0.0871557427476584,-0.996194698091746,0.));
#1579=DIRECTION('',(0.,0.,-1.));
#1580=DIRECTION('',(0.0871557427476584,-0.996194698091746,0.));
#1581=DIRECTION('',(0.,0.,-1.));
#1582=DIRECTION('',(0.0871557427476584,-0.996194698091746,0.));
#1583=DIRECTION('',(0.,0.,-1.));
#1584=DIRECTION('',(-0.0871557427476584,0.996194698091746,0.));
#1585=DIRECTION('',(0.,0.,-1.));
#1586=DIRECTION('',(-0.0871557427476584,0.996194698091746,0.));
#1587=DIRECTION('',(0.,0.,-1.));
#1588=DIRECTION('',(-0.0871557427476584,0.996194698091746,0.));
#1589=DIRECTION('',(0.,0.,1.));
#1590=DIRECTION('',(-0.0871557427476584,0.996194698091746,0.));
#1591=DIRECTION('',(0.,0.,1.));
#1592=DIRECTION('',(-0.0871557427476584,0.996194698091746,0.));
#1593=DIRECTION('',(0.,0.,1.));
#1594=DIRECTION('',(0.0871557427476584,-0.996194698091746,0.));
#1595=DIRECTION('',(-0.0871557427476584,0.996194698091746,0.));
#1596=DIRECTION('',(0.,0.,-1.));
#1597=DIRECTION('',(0.0871557427476584,-0.996194698091746,0.));
#1598=DIRECTION('',(0.,0.,1.));
#1599=DIRECTION('center_axis',(-0.996194698091746,-0.0871557427476584,0.));
#1600=DIRECTION('ref_axis',(0.0871557427476584,-0.996194698091746,0.));
#1601=DIRECTION('',(0.,0.,-1.));
#1602=DIRECTION('',(0.0871557427476584,-0.996194698091746,0.));
#1603=DIRECTION('',(0.,0.,-1.));
#1604=DIRECTION('',(0.0871557427476584,-0.996194698091746,0.));
#1605=DIRECTION('center_axis',(-0.996194698091746,-0.0871557427476584,0.));
#1606=DIRECTION('ref_axis',(0.0871557427476584,-0.996194698091746,0.));
#1607=DIRECTION('',(-0.0871557427476584,0.996194698091746,0.));
#1608=DIRECTION('',(0.,0.,-1.));
#1609=DIRECTION('',(-0.0871557427476584,0.996194698091746,0.));
#1610=DIRECTION('',(0.,0.,-1.));
#1611=DIRECTION('center_axis',(-0.996194698091746,-0.0871557427476584,0.));
#1612=DIRECTION('ref_axis',(0.0871557427476584,-0.996194698091746,0.));
#1613=DIRECTION('',(0.,0.,-1.));
#1614=DIRECTION('',(-0.0871557427476584,0.996194698091746,0.));
#1615=DIRECTION('',(0.,0.,1.));
#1616=DIRECTION('',(0.0871557427476584,-0.996194698091746,0.));
#1617=DIRECTION('',(0.,0.,1.));
#1618=DIRECTION('',(-0.0871557427476584,0.996194698091746,0.));
#1619=DIRECTION('',(0.,0.,-1.));
#1620=DIRECTION('',(0.0871557427476584,-0.996194698091746,0.));
#1621=DIRECTION('',(0.,0.,1.));
#1622=DIRECTION('',(-0.0871557427476584,0.996194698091746,0.));
#1623=DIRECTION('center_axis',(-0.996194698091746,-0.0871557427476584,0.));
#1624=DIRECTION('ref_axis',(0.0871557427476584,-0.996194698091746,0.));
#1625=DIRECTION('',(-0.0871557427476584,0.996194698091746,0.));
#1626=DIRECTION('',(0.,0.,-1.));
#1627=DIRECTION('',(-0.0871557427476584,0.996194698091746,0.));
#1628=DIRECTION('',(0.,0.,-1.));
#1629=DIRECTION('center_axis',(-0.996194698091746,-0.0871557427476584,0.));
#1630=DIRECTION('ref_axis',(0.0871557427476584,-0.996194698091746,0.));
#1631=DIRECTION('',(0.,0.,1.));
#1632=DIRECTION('',(-0.0871557427476584,0.996194698091746,0.));
#1633=DIRECTION('',(0.,0.,1.));
#1634=DIRECTION('',(-0.0871557427476584,0.996194698091746,0.));
#1635=DIRECTION('center_axis',(-0.996194698091746,-0.0871557427476584,0.));
#1636=DIRECTION('ref_axis',(0.0871557427476584,-0.996194698091746,0.));
#1637=DIRECTION('',(0.0871557427476584,-0.996194698091746,0.));
#1638=DIRECTION('',(0.,0.,-1.));
#1639=DIRECTION('',(-0.0871557427476584,0.996194698091746,0.));
#1640=DIRECTION('',(0.,0.,1.));
#1641=DIRECTION('',(0.0473599927389031,-0.541327194064059,0.839477158744956));
#1642=DIRECTION('',(0.0734283103734712,-0.839289428072167,-0.538703572627833));
#1643=DIRECTION('',(-0.047542373909358,0.543411820381397,-0.83811891528162));
#1644=DIRECTION('center_axis',(-0.996194698091746,-0.0871557427476584,0.));
#1645=DIRECTION('ref_axis',(0.0871557427476584,-0.996194698091746,0.));
#1646=DIRECTION('',(0.0871557427476584,-0.996194698091746,0.));
#1647=DIRECTION('',(0.,0.,1.));
#1648=DIRECTION('',(0.0871557427476584,-0.996194698091746,0.));
#1649=DIRECTION('',(2.60255640654087E-7,-2.97473558476487E-6,0.999999999995542));
#1650=CARTESIAN_POINT('',(0.,0.,0.));
#1651=CARTESIAN_POINT('Origin',(48.5921153853774,38.3517763261492,-26.));
#1652=CARTESIAN_POINT('',(48.5921153853774,38.3517763261492,-28.));
#1653=CARTESIAN_POINT('',(48.4178038998821,40.3441657223327,-26.));
#1654=CARTESIAN_POINT('Origin',(48.5921153853774,38.3517763261492,-26.));
#1655=CARTESIAN_POINT('',(48.4178038998821,40.3441657223327,-23.5));
#1656=CARTESIAN_POINT('',(48.4178038998821,40.3441657223327,-26.));
#1657=CARTESIAN_POINT('',(48.3742260285082,40.8422630713785,-23.));
#1658=CARTESIAN_POINT('Origin',(48.3742260285082,40.8422630713785,-23.5));
#1659=CARTESIAN_POINT('',(47.154045630041,54.788988844663,-23.));
#1660=CARTESIAN_POINT('',(48.3742260285082,40.8422630713785,-23.));
#1661=CARTESIAN_POINT('',(46.9797341445457,56.7813782408465,-21.));
#1662=CARTESIAN_POINT('Origin',(47.154045630041,54.788988844663,-21.));
#1663=CARTESIAN_POINT('',(46.9797341445457,56.7813782408465,21.));
#1664=CARTESIAN_POINT('',(46.9797341445457,56.7813782408465,21.));
#1665=CARTESIAN_POINT('',(47.154045630041,54.788988844663,23.));
#1666=CARTESIAN_POINT('Origin',(47.154045630041,54.788988844663,21.));
#1667=CARTESIAN_POINT('',(48.3742260285082,40.8422630713785,23.));
#1668=CARTESIAN_POINT('',(48.3742260285082,40.8422630713785,23.));
#1669=CARTESIAN_POINT('',(48.4178038998821,40.3441657223327,23.5));
#1670=CARTESIAN_POINT('Origin',(48.3742260285082,40.8422630713785,23.5));
#1671=CARTESIAN_POINT('',(48.4178038998821,40.3441657223327,26.));
#1672=CARTESIAN_POINT('',(48.4178038998821,40.3441657223327,26.));
#1673=CARTESIAN_POINT('',(48.5921153853774,38.3517763261492,28.));
#1674=CARTESIAN_POINT('Origin',(48.5921153853774,38.3517763261492,26.));
#1675=CARTESIAN_POINT('',(50.8145868254427,12.9488115248097,28.));
#1676=CARTESIAN_POINT('',(50.8145868254427,12.9488115248097,28.));
#1677=CARTESIAN_POINT('',(50.988898310938,10.9564221286262,26.));
#1678=CARTESIAN_POINT('Origin',(50.8145868254427,12.9488115248097,26.));
#1679=CARTESIAN_POINT('',(50.988898310938,10.9564221286262,10.75));
#1680=CARTESIAN_POINT('',(50.988898310938,10.9564221286262,10.75));
#1681=CARTESIAN_POINT('',(51.0324761823118,10.4583247795803,10.25));
#1682=CARTESIAN_POINT('Origin',(51.0324761823118,10.4583247795803,10.75));
#1683=CARTESIAN_POINT('',(51.250365539181,7.96783803435094,10.25));
#1684=CARTESIAN_POINT('',(51.250365539181,7.96783803435094,10.25));
#1685=CARTESIAN_POINT('',(51.4246770246763,5.97544863816744,8.25));
#1686=CARTESIAN_POINT('Origin',(51.250365539181,7.96783803435094,8.25));
#1687=CARTESIAN_POINT('',(51.4246770246763,5.97544863816744,-2.25));
#1688=CARTESIAN_POINT('',(51.4246770246763,5.97544863816744,8.25));
#1689=CARTESIAN_POINT('',(51.250365539181,7.96783803435094,-4.25));
#1690=CARTESIAN_POINT('Origin',(51.250365539181,7.96783803435094,-2.25));
#1691=CARTESIAN_POINT('',(51.0324761823118,10.4583247795803,-4.25));
#1692=CARTESIAN_POINT('',(51.0324761823118,10.4583247795803,-4.25));
#1693=CARTESIAN_POINT('',(50.988898310938,10.9564221286262,-4.75));
#1694=CARTESIAN_POINT('Origin',(51.0324761823118,10.4583247795803,-4.75));
#1695=CARTESIAN_POINT('',(50.988898310938,10.9564221286262,-26.));
#1696=CARTESIAN_POINT('',(50.988898310938,10.9564221286262,-26.));
#1697=CARTESIAN_POINT('',(50.8145868254427,12.9488115248097,-28.));
#1698=CARTESIAN_POINT('Origin',(50.8145868254427,12.9488115248097,-26.));
#1699=CARTESIAN_POINT('',(48.5921153853774,38.3517763261492,-28.));
#1700=CARTESIAN_POINT('',(50.0173612002466,22.0611421179028,1.76126193006728));
#1701=CARTESIAN_POINT('',(50.0173612002466,22.0611421179028,-5.28382319259025));
#1702=CARTESIAN_POINT('',(50.0173612002466,22.0611421179028,-26.));
#1703=CARTESIAN_POINT('',(50.0173612002466,22.0611421179028,5.28379539206644));
#1704=CARTESIAN_POINT('',(50.0173612002466,22.0611421179028,-26.));
#1705=CARTESIAN_POINT('',(49.7103521800125,25.5702712765978,5.28379539206644));
#1706=CARTESIAN_POINT('',(48.5921153853774,38.3517763261492,5.28379539206644));
#1707=CARTESIAN_POINT('',(49.7103521800125,25.5702712765978,12.3288987133828));
#1708=CARTESIAN_POINT('',(49.7103521800125,25.5702712765978,-26.));
#1709=CARTESIAN_POINT('',(49.0963325534268,32.5885477233939,12.3288987133828));
#1710=CARTESIAN_POINT('',(48.5921153853774,38.3517763261492,12.3288987133828));
#1711=CARTESIAN_POINT('',(49.0963325534268,32.5885477233939,15.85144664627));
#1712=CARTESIAN_POINT('',(49.0963325534268,32.5885477233939,-26.));
#1713=CARTESIAN_POINT('',(48.7893219470751,36.0976950114964,15.85144664627));
#1714=CARTESIAN_POINT('',(48.5921153853774,38.3517763261492,15.85144664627));
#1715=CARTESIAN_POINT('',(48.4823138436041,39.6068136915413,15.85144664627));
#1716=CARTESIAN_POINT('',(48.5921153853774,38.3517763261492,15.85144664627));
#1717=CARTESIAN_POINT('',(48.1753039066085,43.1159533288684,15.85144664627));
#1718=CARTESIAN_POINT('',(48.5921153853774,38.3517763261492,15.85144664627));
#1719=CARTESIAN_POINT('',(48.1753039066085,43.1159533288684,12.3288987133828));
#1720=CARTESIAN_POINT('',(48.1753039066085,43.1159533288684,-26.));
#1721=CARTESIAN_POINT('',(47.5612826939038,50.134247905089,12.3288987133828));
#1722=CARTESIAN_POINT('',(48.5921153853774,38.3517763261492,12.3288987133828));
#1723=CARTESIAN_POINT('',(47.5612826939038,50.134247905089,5.28379539206578));
#1724=CARTESIAN_POINT('',(47.5612826939038,50.134247905089,-26.));
#1725=CARTESIAN_POINT('',(47.2542736736712,53.6433770637671,5.28379539206578));
#1726=CARTESIAN_POINT('',(48.5921153853774,38.3517763261492,5.28379539206578));
#1727=CARTESIAN_POINT('',(47.2542736736712,53.6433770637671,-1.76127153193255));
#1728=CARTESIAN_POINT('',(47.2542736736712,53.6433770637671,-26.));
#1729=CARTESIAN_POINT('',(47.2542736736712,53.6433770637671,-5.28382319259024));
#1730=CARTESIAN_POINT('',(47.2542736736712,53.6433770637671,-26.));
#1731=CARTESIAN_POINT('',(47.5612826939037,50.1342479050893,-5.28382319259024));
#1732=CARTESIAN_POINT('',(48.5921153853774,38.3517763261492,-5.28382319259024));
#1733=CARTESIAN_POINT('',(47.5612826939037,50.1342479050893,-12.3289083152478));
#1734=CARTESIAN_POINT('',(47.5612826939037,50.1342479050893,-26.));
#1735=CARTESIAN_POINT('',(48.1753039066085,43.1159533288684,-12.3289083152478));
#1736=CARTESIAN_POINT('',(48.5921153853774,38.3517763261492,-12.3289083152478));
#1737=CARTESIAN_POINT('',(48.1753039066085,43.1159533288684,-15.8514417772309));
#1738=CARTESIAN_POINT('',(48.1753039066085,43.1159533288684,-26.));
#1739=CARTESIAN_POINT('',(48.4823129268412,39.60682417019,-15.8514417772309));
#1740=CARTESIAN_POINT('',(48.5921153853774,38.3517763261492,-15.8514417772309));
#1741=CARTESIAN_POINT('',(49.0963325534268,32.5885477233939,-15.8514417772309));
#1742=CARTESIAN_POINT('',(48.5921153853774,38.3517763261492,-15.8514417772309));
#1743=CARTESIAN_POINT('',(49.0963325534268,32.5885477233939,-12.3289083152478));
#1744=CARTESIAN_POINT('',(49.0963325534268,32.5885477233939,-26.));
#1745=CARTESIAN_POINT('',(49.7103521800125,25.5702712765977,-12.3289083152478));
#1746=CARTESIAN_POINT('',(48.5921153853774,38.3517763261492,-12.3289083152478));
#1747=CARTESIAN_POINT('',(49.7103521800125,25.5702712765977,-5.28382319259025));
#1748=CARTESIAN_POINT('',(49.7103521800125,25.5702712765977,-26.));
#1749=CARTESIAN_POINT('',(48.5921153853774,38.3517763261492,-5.28382319259025));
#1750=CARTESIAN_POINT('',(47.5481581139353,50.2842625405804,14.9607199801858));
#1751=CARTESIAN_POINT('',(47.5481581139353,50.2842625405804,14.3255740755831));
#1752=CARTESIAN_POINT('',(47.5481581139353,50.2842625405804,-26.));
#1753=CARTESIAN_POINT('',(47.3238101331941,52.8485716944707,14.9607199801857));
#1754=CARTESIAN_POINT('',(48.5921153853774,38.3517763261492,14.9607199801858));
#1755=CARTESIAN_POINT('',(47.357953909226,52.4583065486123,15.5626365901143));
#1756=CARTESIAN_POINT('',(46.0690753193222,67.1902562431221,-7.15885240745668));
#1757=CARTESIAN_POINT('',(47.316315777596,52.934232570933,15.8681129132459));
#1758=CARTESIAN_POINT('',(49.8780153491197,23.6538724844563,-2.92568343260551));
#1759=CARTESIAN_POINT('',(47.2605526909963,53.5716075673307,14.8796871387823));
#1760=CARTESIAN_POINT('',(46.0284544299817,67.6545551328689,-6.95980834326665));
#1761=CARTESIAN_POINT('',(47.2605526909963,53.5716075673307,14.3255740755831));
#1762=CARTESIAN_POINT('',(47.2605526909963,53.5716075673307,-26.));
#1763=CARTESIAN_POINT('',(48.5921153853774,38.3517763261492,14.3255740755831));
#1764=CARTESIAN_POINT('Origin',(48.5921153853774,38.3517763261492,-26.));
#1765=CARTESIAN_POINT('',(49.7103521800125,25.5702712765977,1.76126193006727));
#1766=CARTESIAN_POINT('',(48.5921153853774,38.3517763261492,1.76126193006727));
#1767=CARTESIAN_POINT('',(49.7103521800125,25.5702712765977,-26.));
#1768=CARTESIAN_POINT('Origin',(48.5921153853774,38.3517763261492,-26.));
#1769=CARTESIAN_POINT('',(48.7893219470751,36.0976950114964,12.3288987133828));
#1770=CARTESIAN_POINT('',(48.7893219470751,36.0976950114964,-26.));
#1771=CARTESIAN_POINT('',(48.5921153853774,38.3517763261492,12.3288987133828));
#1772=CARTESIAN_POINT('Origin',(48.5921153853774,38.3517763261492,-26.));
#1773=CARTESIAN_POINT('',(48.4823129268412,39.60682417019,12.3288987133828));
#1774=CARTESIAN_POINT('',(48.5921153853774,38.3517763261492,12.3288987133828));
#1775=CARTESIAN_POINT('',(48.4823029515301,39.6069381885177,-25.999996237646));
#1776=CARTESIAN_POINT('Origin',(48.5921153853774,38.3517763261492,-26.));
#1777=CARTESIAN_POINT('',(48.4823129268412,39.60682417019,-12.3289083152478));
#1778=CARTESIAN_POINT('',(48.5921153853774,38.3517763261492,-12.3289083152478));
#1779=CARTESIAN_POINT('',(48.4823129268412,39.60682417019,-26.));
#1780=CARTESIAN_POINT('Origin',(48.5921153853774,38.3517763261492,-26.));
#1781=CARTESIAN_POINT('',(47.5612826939037,50.1342479050893,-1.76127153193255));
#1782=CARTESIAN_POINT('',(47.5612826939037,50.1342479050893,-26.));
#1783=CARTESIAN_POINT('',(48.5921153853774,38.3517763261492,-1.76127153193255));
#1784=CARTESIAN_POINT('Origin',(48.5921153853774,38.3517763261492,-26.));
#1785=CARTESIAN_POINT('',(49.4033431597647,29.0794004354499,8.80636525091041));
#1786=CARTESIAN_POINT('',(49.4033431597647,29.0794004354499,-8.80633845638904));
#1787=CARTESIAN_POINT('',(49.4033431597647,29.0794004354499,-26.));
#1788=CARTESIAN_POINT('',(47.868291714124,46.6251187465528,-8.80633845638904));
#1789=CARTESIAN_POINT('',(48.5921153853774,38.3517763261492,-8.80633845638904));
#1790=CARTESIAN_POINT('',(47.868291714124,46.6251187465528,8.80636525091041));
#1791=CARTESIAN_POINT('',(47.868291714124,46.6251187465528,-26.));
#1792=CARTESIAN_POINT('',(48.5921153853774,38.3517763261492,8.80636525091041));
#1793=CARTESIAN_POINT('',(48.7893219470751,36.0976950114964,-5.28380499423137));
#1794=CARTESIAN_POINT('',(48.7893219470751,36.0976950114964,-1.76127153224823));
#1795=CARTESIAN_POINT('',(48.7893219470751,36.0976950114964,-26.));
#1796=CARTESIAN_POINT('',(49.0963309673091,32.5885658528027,-5.28380499423137));
#1797=CARTESIAN_POINT('',(48.5921153853774,38.3517763261492,-5.28380499423137));
#1798=CARTESIAN_POINT('',(49.0963309673091,32.5885658528027,5.28383178906847));
#1799=CARTESIAN_POINT('',(49.0963309673091,32.5885658528027,-26.));
#1800=CARTESIAN_POINT('',(48.1753039066084,43.1159533288696,5.28383178906846));
#1801=CARTESIAN_POINT('',(48.5921153853774,38.3517763261492,5.28383178906847));
#1802=CARTESIAN_POINT('',(48.1753039066084,43.1159533288697,-1.76127153224823));
#1803=CARTESIAN_POINT('',(48.1753039066084,43.1159533288697,-26.));
#1804=CARTESIAN_POINT('',(48.5921153853774,38.3517763261492,-1.76127153224823));
#1805=CARTESIAN_POINT('Origin',(48.5921153853774,38.3517763261492,-26.));
#1806=CARTESIAN_POINT('Origin',(48.5921153853774,38.3517763261492,-26.));
#1807=CARTESIAN_POINT('Origin',(48.5921153853774,38.3517763261492,-26.));
#1808=CARTESIAN_POINT('',(48.0940180363315,38.3081984547753,-28.));
#1809=CARTESIAN_POINT('',(47.9197065508362,40.3005878509588,-26.));
#1810=CARTESIAN_POINT('Origin',(48.0940180363315,38.3081984547753,-26.));
#1811=CARTESIAN_POINT('',(48.4178038998821,40.3441657223327,-26.));
#1812=CARTESIAN_POINT('',(48.5921153853774,38.3517763261492,-28.));
#1813=CARTESIAN_POINT('Origin',(48.4178038998821,40.3441657223327,-26.));
#1814=CARTESIAN_POINT('',(47.9197065508362,40.3005878509588,-23.5));
#1815=CARTESIAN_POINT('',(47.9197065508362,40.3005878509588,-26.));
#1816=CARTESIAN_POINT('',(48.4178038998821,40.3441657223327,-23.5));
#1817=CARTESIAN_POINT('Origin',(48.3742260285082,40.8422630713785,-23.5));
#1818=CARTESIAN_POINT('',(47.8761286794624,40.7986852000047,-23.));
#1819=CARTESIAN_POINT('Origin',(47.8761286794624,40.7986852000047,-23.5));
#1820=CARTESIAN_POINT('',(48.3742260285082,40.8422630713785,-23.));
#1821=CARTESIAN_POINT('Origin',(48.3742260285082,40.8422630713785,-23.));
#1822=CARTESIAN_POINT('',(46.6559482809952,54.7454109732892,-23.));
#1823=CARTESIAN_POINT('',(47.8761286794624,40.7986852000047,-23.));
#1824=CARTESIAN_POINT('',(47.154045630041,54.788988844663,-23.));
#1825=CARTESIAN_POINT('Origin',(47.154045630041,54.788988844663,-21.));
#1826=CARTESIAN_POINT('',(46.4816367954998,56.7378003694726,-21.));
#1827=CARTESIAN_POINT('Origin',(46.6559482809952,54.7454109732892,-21.));
#1828=CARTESIAN_POINT('',(46.9797341445457,56.7813782408465,-21.));
#1829=CARTESIAN_POINT('Origin',(46.9797341445457,56.7813782408465,21.));
#1830=CARTESIAN_POINT('',(46.4816367954998,56.7378003694726,21.));
#1831=CARTESIAN_POINT('',(46.4816367954998,56.7378003694726,21.));
#1832=CARTESIAN_POINT('',(46.9797341445457,56.7813782408465,21.));
#1833=CARTESIAN_POINT('Origin',(47.154045630041,54.788988844663,21.));
#1834=CARTESIAN_POINT('',(46.6559482809952,54.7454109732892,23.));
#1835=CARTESIAN_POINT('Origin',(46.6559482809952,54.7454109732892,21.));
#1836=CARTESIAN_POINT('',(47.154045630041,54.788988844663,23.));
#1837=CARTESIAN_POINT('Origin',(48.3742260285082,40.8422630713785,23.));
#1838=CARTESIAN_POINT('',(47.8761286794624,40.7986852000047,23.));
#1839=CARTESIAN_POINT('',(47.8761286794624,40.7986852000047,23.));
#1840=CARTESIAN_POINT('',(48.3742260285082,40.8422630713785,23.));
#1841=CARTESIAN_POINT('Origin',(48.3742260285082,40.8422630713785,23.5));
#1842=CARTESIAN_POINT('',(47.9197065508362,40.3005878509588,23.5));
#1843=CARTESIAN_POINT('Origin',(47.8761286794624,40.7986852000047,23.5));
#1844=CARTESIAN_POINT('',(48.4178038998821,40.3441657223327,23.5));
#1845=CARTESIAN_POINT('Origin',(48.4178038998821,40.3441657223327,26.));
#1846=CARTESIAN_POINT('',(47.9197065508362,40.3005878509588,26.));
#1847=CARTESIAN_POINT('',(47.9197065508362,40.3005878509588,26.));
#1848=CARTESIAN_POINT('',(48.4178038998821,40.3441657223327,26.));
#1849=CARTESIAN_POINT('Origin',(48.5921153853774,38.3517763261492,26.));
#1850=CARTESIAN_POINT('',(48.0940180363315,38.3081984547753,28.));
#1851=CARTESIAN_POINT('Origin',(48.0940180363315,38.3081984547753,26.));
#1852=CARTESIAN_POINT('',(48.5921153853774,38.3517763261492,28.));
#1853=CARTESIAN_POINT('Origin',(50.8145868254427,12.9488115248097,28.));
#1854=CARTESIAN_POINT('',(50.3164894763968,12.9052336534358,28.));
#1855=CARTESIAN_POINT('',(50.3164894763968,12.9052336534358,28.));
#1856=CARTESIAN_POINT('',(50.8145868254427,12.9488115248097,28.));
#1857=CARTESIAN_POINT('Origin',(50.8145868254427,12.9488115248097,26.));
#1858=CARTESIAN_POINT('',(50.4908009618921,10.9128442572523,26.));
#1859=CARTESIAN_POINT('Origin',(50.3164894763968,12.9052336534358,26.));
#1860=CARTESIAN_POINT('',(50.988898310938,10.9564221286262,26.));
#1861=CARTESIAN_POINT('Origin',(50.988898310938,10.9564221286262,10.75));
#1862=CARTESIAN_POINT('',(50.4908009618921,10.9128442572523,10.75));
#1863=CARTESIAN_POINT('',(50.4908009618921,10.9128442572523,10.75));
#1864=CARTESIAN_POINT('',(50.988898310938,10.9564221286262,10.75));
#1865=CARTESIAN_POINT('Origin',(51.0324761823118,10.4583247795803,10.75));
#1866=CARTESIAN_POINT('',(50.5343788332659,10.4147469082065,10.25));
#1867=CARTESIAN_POINT('Origin',(50.5343788332659,10.4147469082065,10.75));
#1868=CARTESIAN_POINT('',(51.0324761823118,10.4583247795803,10.25));
#1869=CARTESIAN_POINT('Origin',(51.250365539181,7.96783803435094,10.25));
#1870=CARTESIAN_POINT('',(50.7522681901351,7.92426016297711,10.25));
#1871=CARTESIAN_POINT('',(50.7522681901351,7.92426016297711,10.25));
#1872=CARTESIAN_POINT('',(51.250365539181,7.96783803435094,10.25));
#1873=CARTESIAN_POINT('Origin',(51.250365539181,7.96783803435094,8.25));
#1874=CARTESIAN_POINT('',(50.9265796756304,5.93187076679362,8.25));
#1875=CARTESIAN_POINT('Origin',(50.7522681901351,7.92426016297711,8.25));
#1876=CARTESIAN_POINT('',(51.4246770246763,5.97544863816744,8.25));
#1877=CARTESIAN_POINT('Origin',(51.4246770246763,5.97544863816744,8.25));
#1878=CARTESIAN_POINT('',(50.9265796756304,5.93187076679362,-2.25));
#1879=CARTESIAN_POINT('',(50.9265796756304,5.93187076679362,8.25));
#1880=CARTESIAN_POINT('',(51.4246770246763,5.97544863816744,-2.25));
#1881=CARTESIAN_POINT('Origin',(51.250365539181,7.96783803435094,-2.25));
#1882=CARTESIAN_POINT('',(50.7522681901351,7.92426016297711,-4.25));
#1883=CARTESIAN_POINT('Origin',(50.7522681901351,7.92426016297711,-2.25));
#1884=CARTESIAN_POINT('',(51.250365539181,7.96783803435094,-4.25));
#1885=CARTESIAN_POINT('Origin',(51.0324761823118,10.4583247795803,-4.25));
#1886=CARTESIAN_POINT('',(50.5343788332659,10.4147469082065,-4.25));
#1887=CARTESIAN_POINT('',(50.5343788332659,10.4147469082065,-4.25));
#1888=CARTESIAN_POINT('',(51.0324761823118,10.4583247795803,-4.25));
#1889=CARTESIAN_POINT('Origin',(51.0324761823118,10.4583247795803,-4.75));
#1890=CARTESIAN_POINT('',(50.4908009618921,10.9128442572523,-4.75));
#1891=CARTESIAN_POINT('Origin',(50.5343788332659,10.4147469082065,-4.75));
#1892=CARTESIAN_POINT('',(50.988898310938,10.9564221286262,-4.75));
#1893=CARTESIAN_POINT('Origin',(50.988898310938,10.9564221286262,-26.));
#1894=CARTESIAN_POINT('',(50.4908009618921,10.9128442572523,-26.));
#1895=CARTESIAN_POINT('',(50.4908009618921,10.9128442572523,-26.));
#1896=CARTESIAN_POINT('',(50.988898310938,10.9564221286262,-26.));
#1897=CARTESIAN_POINT('Origin',(50.8145868254427,12.9488115248097,-26.));
#1898=CARTESIAN_POINT('',(50.3164894763968,12.9052336534358,-28.));
#1899=CARTESIAN_POINT('Origin',(50.3164894763968,12.9052336534358,-26.));
#1900=CARTESIAN_POINT('',(50.8145868254427,12.9488115248097,-28.));
#1901=CARTESIAN_POINT('Origin',(48.5921153853774,38.3517763261492,-28.));
#1902=CARTESIAN_POINT('',(48.0940180363315,38.3081984547753,-28.));
#1903=CARTESIAN_POINT('Origin',(48.5921153853774,38.3517763261492,-26.));
#1904=CARTESIAN_POINT('Origin',(48.0940180363315,38.3081984547753,-26.));
#1905=CARTESIAN_POINT('Origin',(48.641925120282,38.3561341132866,-26.));
#1906=CARTESIAN_POINT('',(49.1461407022137,32.5929236399401,-5.28380499423136));
#1907=CARTESIAN_POINT('',(48.8391316819797,36.1020527986338,-5.28380499423136));
#1908=CARTESIAN_POINT('',(48.641925120282,38.3561341132866,-5.28380499423136));
#1909=CARTESIAN_POINT('',(48.8391316819797,36.1020527986338,-1.76127153224821));
#1910=CARTESIAN_POINT('',(48.8391316819797,36.1020527986338,-26.));
#1911=CARTESIAN_POINT('',(48.225113641513,43.120311116007,-1.76127153224821));
#1912=CARTESIAN_POINT('',(48.641925120282,38.3561341132866,-1.76127153224821));
#1913=CARTESIAN_POINT('',(48.225113641513,43.120311116007,5.28383178906848));
#1914=CARTESIAN_POINT('',(48.225113641513,43.120311116007,-26.));
#1915=CARTESIAN_POINT('',(49.1461407022137,32.5929236399401,5.28383178906848));
#1916=CARTESIAN_POINT('',(48.641925120282,38.3561341132866,5.28383178906848));
#1917=CARTESIAN_POINT('',(49.1461407022137,32.5929236399401,-26.));
#1918=CARTESIAN_POINT('Origin',(48.641925120282,38.3561341132866,-26.));
#1919=CARTESIAN_POINT('',(47.6110924288083,50.1386056922264,5.28379539206579));
#1920=CARTESIAN_POINT('',(47.6110924288083,50.1386056922264,12.3288987133828));
#1921=CARTESIAN_POINT('',(47.6110924288083,50.1386056922264,-26.));
#1922=CARTESIAN_POINT('',(48.5321226617458,39.6111819573274,12.3288987133828));
#1923=CARTESIAN_POINT('',(48.641925120282,38.3561341132866,12.3288987133828));
#1924=CARTESIAN_POINT('',(48.5321235785087,39.6111714786787,15.85144664627));
#1925=CARTESIAN_POINT('',(48.5321126864346,39.6112959756551,-25.999996237646));
#1926=CARTESIAN_POINT('',(48.8391316819797,36.1020527986338,15.85144664627));
#1927=CARTESIAN_POINT('',(48.641925120282,38.3561341132866,15.85144664627));
#1928=CARTESIAN_POINT('',(48.8391316819797,36.1020527986338,12.3288987133828));
#1929=CARTESIAN_POINT('',(48.8391316819797,36.1020527986338,-26.));
#1930=CARTESIAN_POINT('',(49.7601619149171,25.5746290637351,12.3288987133828));
#1931=CARTESIAN_POINT('',(48.641925120282,38.3561341132866,12.3288987133828));
#1932=CARTESIAN_POINT('',(49.7601619149171,25.5746290637351,5.28379539206646));
#1933=CARTESIAN_POINT('',(49.7601619149171,25.5746290637351,-26.));
#1934=CARTESIAN_POINT('',(50.0671709351512,22.0654999050401,5.28379539206646));
#1935=CARTESIAN_POINT('',(48.641925120282,38.3561341132866,5.28379539206646));
#1936=CARTESIAN_POINT('',(50.0671709351512,22.0654999050402,1.76126193006729));
#1937=CARTESIAN_POINT('',(50.0671709351512,22.0654999050401,-26.));
#1938=CARTESIAN_POINT('',(49.7601619149171,25.5746290637351,1.76126193006729));
#1939=CARTESIAN_POINT('',(48.641925120282,38.3561341132866,1.76126193006729));
#1940=CARTESIAN_POINT('',(49.7601619149171,25.5746290637351,-12.3289083152478));
#1941=CARTESIAN_POINT('',(49.7601619149171,25.5746290637351,-26.));
#1942=CARTESIAN_POINT('',(48.5321226617457,39.6111819573274,-12.3289083152478));
#1943=CARTESIAN_POINT('',(48.641925120282,38.3561341132866,-12.3289083152478));
#1944=CARTESIAN_POINT('',(48.5321226617457,39.6111819573274,-15.8514417772309));
#1945=CARTESIAN_POINT('',(48.5321226617457,39.6111819573274,-26.));
#1946=CARTESIAN_POINT('',(48.2251136415131,43.1203111160058,-15.8514417772309));
#1947=CARTESIAN_POINT('',(48.641925120282,38.3561341132866,-15.8514417772309));
#1948=CARTESIAN_POINT('',(48.2251136415131,43.1203111160058,-12.3289083152478));
#1949=CARTESIAN_POINT('',(48.2251136415131,43.1203111160058,-26.));
#1950=CARTESIAN_POINT('',(47.6110924288083,50.1386056922267,-12.3289083152478));
#1951=CARTESIAN_POINT('',(48.641925120282,38.3561341132866,-12.3289083152478));
#1952=CARTESIAN_POINT('',(47.6110924288083,50.1386056922267,-1.76127153193253));
#1953=CARTESIAN_POINT('',(47.6110924288083,50.1386056922267,-26.));
#1954=CARTESIAN_POINT('',(47.3040834085757,53.6477348509044,-1.76127153193253));
#1955=CARTESIAN_POINT('',(48.641925120282,38.3561341132866,-1.76127153193253));
#1956=CARTESIAN_POINT('',(47.3040834085758,53.6477348509044,5.28379539206579));
#1957=CARTESIAN_POINT('',(47.3040834085757,53.6477348509044,-26.));
#1958=CARTESIAN_POINT('',(48.641925120282,38.3561341132866,5.28379539206579));
#1959=CARTESIAN_POINT('',(49.4531528946693,29.0837582225873,-8.80633845638903));
#1960=CARTESIAN_POINT('',(47.9181014490285,46.6294765336902,-8.80633845638903));
#1961=CARTESIAN_POINT('',(48.641925120282,38.3561341132866,-8.80633845638903));
#1962=CARTESIAN_POINT('',(49.4531528946693,29.0837582225873,8.80636525091043));
#1963=CARTESIAN_POINT('',(49.4531528946693,29.0837582225873,-26.));
#1964=CARTESIAN_POINT('',(47.9181014490285,46.6294765336902,8.80636525091043));
#1965=CARTESIAN_POINT('',(48.641925120282,38.3561341132866,8.80636525091043));
#1966=CARTESIAN_POINT('',(47.9181014490285,46.6294765336902,-26.));
#1967=CARTESIAN_POINT('Origin',(48.641925120282,38.3561341132866,-26.));
#1968=CARTESIAN_POINT('',(48.8391316819797,36.1020527986338,15.85144664627));
#1969=CARTESIAN_POINT('',(48.8391316819797,36.1020527986338,12.3288987133828));
#1970=CARTESIAN_POINT('',(48.8391316819797,36.1020527986338,-26.));
#1971=CARTESIAN_POINT('',(49.1461422883314,32.5929055105313,15.85144664627));
#1972=CARTESIAN_POINT('',(48.641925120282,38.3561341132866,15.85144664627));
#1973=CARTESIAN_POINT('',(49.1461422883314,32.5929055105313,12.3288987133828));
#1974=CARTESIAN_POINT('',(49.1461422883314,32.5929055105313,-26.));
#1975=CARTESIAN_POINT('',(48.641925120282,38.3561341132866,12.3288987133828));
#1976=CARTESIAN_POINT('Origin',(48.641925120282,38.3561341132866,-26.));
#1977=CARTESIAN_POINT('',(50.0671709351512,22.0654999050402,1.76126193006729));
#1978=CARTESIAN_POINT('',(49.7601619149171,25.5746290637351,1.76126193006729));
#1979=CARTESIAN_POINT('',(48.641925120282,38.3561341132866,1.76126193006729));
#1980=CARTESIAN_POINT('',(50.0671709351512,22.0654999050402,-5.28382319259024));
#1981=CARTESIAN_POINT('',(50.0671709351512,22.0654999050402,-26.));
#1982=CARTESIAN_POINT('',(49.7601619149171,25.5746290637351,-5.28382319259024));
#1983=CARTESIAN_POINT('',(48.641925120282,38.3561341132866,-5.28382319259024));
#1984=CARTESIAN_POINT('',(49.7601619149171,25.5746290637351,-26.));
#1985=CARTESIAN_POINT('Origin',(48.641925120282,38.3561341132866,-26.));
#1986=CARTESIAN_POINT('',(49.4531528946693,29.0837582225873,8.80636525091043));
#1987=CARTESIAN_POINT('',(49.4531528946693,29.0837582225873,-8.80633845638903));
#1988=CARTESIAN_POINT('',(49.4531528946693,29.0837582225873,-26.));
#1989=CARTESIAN_POINT('',(47.9181014490285,46.6294765336902,-8.80633845638903));
#1990=CARTESIAN_POINT('',(48.641925120282,38.3561341132866,-8.80633845638903));
#1991=CARTESIAN_POINT('',(47.9181014490285,46.6294765336902,8.80636525091043));
#1992=CARTESIAN_POINT('',(47.9181014490285,46.6294765336902,-26.));
#1993=CARTESIAN_POINT('',(48.641925120282,38.3561341132866,8.80636525091043));
#1994=CARTESIAN_POINT('',(48.8391316819797,36.1020527986338,-5.28380499423136));
#1995=CARTESIAN_POINT('',(48.8391316819797,36.1020527986338,-1.76127153224821));
#1996=CARTESIAN_POINT('',(48.8391316819797,36.1020527986338,-26.));
#1997=CARTESIAN_POINT('',(49.1461407022137,32.5929236399401,-5.28380499423136));
#1998=CARTESIAN_POINT('',(48.641925120282,38.3561341132866,-5.28380499423136));
#1999=CARTESIAN_POINT('',(49.1461407022137,32.5929236399401,5.28383178906848));
#2000=CARTESIAN_POINT('',(49.1461407022137,32.5929236399401,-26.));
#2001=CARTESIAN_POINT('',(48.225113641513,43.120311116007,5.28383178906848));
#2002=CARTESIAN_POINT('',(48.641925120282,38.3561341132866,5.28383178906848));
#2003=CARTESIAN_POINT('',(48.225113641513,43.120311116007,-1.76127153224821));
#2004=CARTESIAN_POINT('',(48.225113641513,43.120311116007,-26.));
#2005=CARTESIAN_POINT('',(48.641925120282,38.3561341132866,-1.76127153224821));
#2006=CARTESIAN_POINT('Origin',(48.641925120282,38.3561341132866,-26.));
#2007=CARTESIAN_POINT('',(49.1461422883314,32.5929055105313,-12.3289083152478));
#2008=CARTESIAN_POINT('',(48.5321226617457,39.6111819573274,-12.3289083152478));
#2009=CARTESIAN_POINT('',(48.641925120282,38.3561341132866,-12.3289083152478));
#2010=CARTESIAN_POINT('',(49.1461422883314,32.5929055105313,-15.8514417772309));
#2011=CARTESIAN_POINT('',(49.1461422883314,32.5929055105313,-26.));
#2012=CARTESIAN_POINT('',(48.5321226617457,39.6111819573274,-15.8514417772309));
#2013=CARTESIAN_POINT('',(48.641925120282,38.3561341132866,-15.8514417772309));
#2014=CARTESIAN_POINT('',(48.5321226617457,39.6111819573274,-26.));
#2015=CARTESIAN_POINT('Origin',(48.641925120282,38.3561341132866,-26.));
#2016=CARTESIAN_POINT('',(47.6110924288083,50.1386056922267,-5.28382319259024));
#2017=CARTESIAN_POINT('',(47.6110924288083,50.1386056922267,-1.76127153193253));
#2018=CARTESIAN_POINT('',(47.6110924288083,50.1386056922267,-26.));
#2019=CARTESIAN_POINT('',(47.3040834085757,53.6477348509045,-5.28382319259024));
#2020=CARTESIAN_POINT('',(48.641925120282,38.3561341132866,-5.28382319259024));
#2021=CARTESIAN_POINT('',(47.3040834085757,53.6477348509044,-1.76127153193253));
#2022=CARTESIAN_POINT('',(47.3040834085757,53.6477348509045,-26.));
#2023=CARTESIAN_POINT('',(48.641925120282,38.3561341132866,-1.76127153193253));
#2024=CARTESIAN_POINT('Origin',(48.641925120282,38.3561341132866,-26.));
#2025=CARTESIAN_POINT('',(47.3736198680987,52.8529294816081,14.9607199801858));
#2026=CARTESIAN_POINT('',(47.5979678488399,50.2886203277178,14.9607199801858));
#2027=CARTESIAN_POINT('',(48.641925120282,38.3561341132866,14.9607199801858));
#2028=CARTESIAN_POINT('',(47.5979678488399,50.2886203277178,14.3255740755831));
#2029=CARTESIAN_POINT('',(47.5979678488399,50.2886203277178,-26.));
#2030=CARTESIAN_POINT('',(47.3103624259009,53.5759653544681,14.3255740755831));
#2031=CARTESIAN_POINT('',(48.641925120282,38.3561341132866,14.3255740755831));
#2032=CARTESIAN_POINT('',(47.3103624259009,53.5759653544681,14.8796871387823));
#2033=CARTESIAN_POINT('',(47.3103624259009,53.5759653544681,-26.));
#2034=CARTESIAN_POINT('',(47.3661255125006,52.9385903580704,15.8681129132459));
#2035=CARTESIAN_POINT('',(46.0782641648863,67.6589129200063,-6.95980834326665));
#2036=CARTESIAN_POINT('',(47.4077636441306,52.4626643357497,15.5626365901143));
#2037=CARTESIAN_POINT('',(49.9278250840242,23.6582302715937,-2.92568343260551));
#2038=CARTESIAN_POINT('',(46.1188850542268,67.1946140302595,-7.15885240745668));
#2039=CARTESIAN_POINT('Origin',(48.641925120282,38.3561341132866,-26.));
#2040=CARTESIAN_POINT('',(48.2251136415131,43.1203111160058,12.3288987133828));
#2041=CARTESIAN_POINT('',(48.5321226617458,39.6111819573274,12.3288987133828));
#2042=CARTESIAN_POINT('',(48.641925120282,38.3561341132866,12.3288987133828));
#2043=CARTESIAN_POINT('',(48.2251136415131,43.1203111160058,15.85144664627));
#2044=CARTESIAN_POINT('',(48.2251136415131,43.1203111160058,-26.));
#2045=CARTESIAN_POINT('',(48.5321235785087,39.6111714786787,15.85144664627));
#2046=CARTESIAN_POINT('',(48.641925120282,38.3561341132866,15.85144664627));
#2047=CARTESIAN_POINT('',(48.5321126864346,39.6112959756551,-25.999996237646));
#2048=UNCERTAINTY_MEASURE_WITH_UNIT(LENGTH_MEASURE(0.01),#2052,
'DISTANCE_ACCURACY_VALUE',
'Maximum model space distance between geometric entities at asserted c
onnectivities');
#2049=UNCERTAINTY_MEASURE_WITH_UNIT(LENGTH_MEASURE(0.01),#2052,
'DISTANCE_ACCURACY_VALUE',
'Maximum model space distance between geometric entities at asserted c
onnectivities');
#2050=(
GEOMETRIC_REPRESENTATION_CONTEXT(3)
GLOBAL_UNCERTAINTY_ASSIGNED_CONTEXT((#2048))
GLOBAL_UNIT_ASSIGNED_CONTEXT((#2052,#2054,#2055))
REPRESENTATION_CONTEXT('','3D')
);
#2051=(
GEOMETRIC_REPRESENTATION_CONTEXT(3)
GLOBAL_UNCERTAINTY_ASSIGNED_CONTEXT((#2049))
GLOBAL_UNIT_ASSIGNED_CONTEXT((#2052,#2054,#2055))
REPRESENTATION_CONTEXT('','3D')
);
#2052=(
LENGTH_UNIT()
NAMED_UNIT(*)
SI_UNIT(.MILLI.,.METRE.)
);
#2053=(
LENGTH_UNIT()
NAMED_UNIT(*)
SI_UNIT($,.METRE.)
);
#2054=(
NAMED_UNIT(*)
PLANE_ANGLE_UNIT()
SI_UNIT($,.RADIAN.)
);
#2055=(
NAMED_UNIT(*)
SI_UNIT($,.STERADIAN.)
SOLID_ANGLE_UNIT()
);
#2056=SHAPE_DEFINITION_REPRESENTATION(#2057,#2058);
#2057=PRODUCT_DEFINITION_SHAPE('',$,#2060);
#2058=SHAPE_REPRESENTATION('',(#1276,#22,#23,#24,#25,#26,#27,#28,#29,#30),
#2050);
#2059=PRODUCT_DEFINITION_CONTEXT('part definition',#2064,'design');
#2060=PRODUCT_DEFINITION('2026-09-17-21-43-43-402','AprilTag 1',#2061,#2059);
#2061=PRODUCT_DEFINITION_FORMATION('',$,#2066);
#2062=PRODUCT_RELATED_PRODUCT_CATEGORY('AprilTag 1','AprilTag 1',(#2066));
#2063=APPLICATION_PROTOCOL_DEFINITION('international standard',
'automotive_design',2009,#2064);
#2064=APPLICATION_CONTEXT(
'Core Data for Automotive Mechanical Design Process');
#2065=PRODUCT_CONTEXT('part definition',#2064,'mechanical');
#2066=PRODUCT('2026-09-17-21-43-43-402','AprilTag 1',$,(#2065));
#2067=PRESENTATION_STYLE_ASSIGNMENT((#2071));
#2068=PRESENTATION_STYLE_ASSIGNMENT((#2072));
#2069=PRESENTATION_STYLE_ASSIGNMENT((#2073));
#2070=PRESENTATION_STYLE_ASSIGNMENT((#2074));
#2071=SURFACE_STYLE_USAGE(.BOTH.,#2075);
#2072=SURFACE_STYLE_USAGE(.BOTH.,#2076);
#2073=SURFACE_STYLE_USAGE(.BOTH.,#2077);
#2074=SURFACE_STYLE_USAGE(.BOTH.,#2078);
#2075=SURFACE_SIDE_STYLE('',(#2079));
#2076=SURFACE_SIDE_STYLE('',(#2080));
#2077=SURFACE_SIDE_STYLE('',(#2081));
#2078=SURFACE_SIDE_STYLE('',(#2082));
#2079=SURFACE_STYLE_FILL_AREA(#2083);
#2080=SURFACE_STYLE_FILL_AREA(#2084);
#2081=SURFACE_STYLE_FILL_AREA(#2085);
#2082=SURFACE_STYLE_FILL_AREA(#2086);
#2083=FILL_AREA_STYLE('Steel - Satin',(#2087));
#2084=FILL_AREA_STYLE('Polycarbonate (Clear)',(#2088));
#2085=FILL_AREA_STYLE('Opaque(213,0,50) (1)',(#2089));
#2086=FILL_AREA_STYLE('Opaque(213,0,50) (1) (1)',(#2090));
#2087=FILL_AREA_STYLE_COLOUR('Steel - Satin',#2091);
#2088=FILL_AREA_STYLE_COLOUR('Polycarbonate (Clear)',#2092);
#2089=FILL_AREA_STYLE_COLOUR('Opaque(213,0,50) (1)',#2093);
#2090=FILL_AREA_STYLE_COLOUR('Opaque(213,0,50) (1) (1)',#2094);
#2091=COLOUR_RGB('Steel - Satin',0.627450980392157,0.627450980392157,0.627450980392157);
#2092=COLOUR_RGB('Polycarbonate (Clear)',0.964705882352941,0.964705882352941,
0.952941176470588);
#2093=COLOUR_RGB('Opaque(213,0,50) (1)',0.,0.,0.);
#2094=COLOUR_RGB('Opaque(213,0,50) (1) (1)',1.,1.,1.);
ENDSEC;
END-ISO-10303-21;
